<?xml version="1.0" encoding="UTF-8" standalone="no"?>
<!-- Created with Inkscape (http://www.inkscape.org/) -->

<svg
   width="88.900047mm"
   height="50.799999mm"
   viewBox="0 0 88.900049 50.8"
   id="SVGRoot"
   version="1.1"
   xml:space="preserve"
   xmlns="http://www.w3.org/2000/svg"
   xmlns:svg="http://www.w3.org/2000/svg"><defs
     id="defs1" /><g
     id="layer1"
     transform="translate(151.45605,-3.2048339)"><path
       id="text16"
       style="font-style:normal;font-variant:normal;font-weight:300;font-stretch:normal;font-size:2.66516px;font-family:'GE Dinar One';-inkscape-font-specification:'GE Dinar One Light';white-space:pre;inline-size:26.468;display:inline;fill:#388dcb;fill-opacity:1;stroke-width:1.20241"
       d="m -114.00026,15.134574 c -0.10822,0 -0.21831,0.02945 -0.33138,0.08707 -0.3224,0.199274 -0.48377,0.442375 -0.48377,0.730481 v 0.05081 c 0,0.06963 0.008,0.122014 0.025,0.158028 0.0962,0.2641 0.27309,0.396686 0.53053,0.396686 h 0.0509 c 0.25502,0 0.47753,-0.135868 0.66761,-0.407169 h 0.0145 v 0.01042 c 0.0964,0.2641 0.2731,0.396684 0.53054,0.396684 h 0.0499 c 0.0698,0 0.15291,-0.01718 0.24915,-0.05081 0.3705,-0.194472 0.55631,-0.449019 0.55631,-0.763536 v -0.04999 c 0,-0.06964 -0.009,-0.123652 -0.0257,-0.162064 -0.0964,-0.264097 -0.27309,-0.396685 -0.53054,-0.396685 h -0.0394 c -0.25504,0 -0.48569,0.137508 -0.69259,0.411199 v -0.01451 c -0.0962,-0.264098 -0.27308,-0.396686 -0.53052,-0.396686 z m -22.24505,0.09433 c -0.24058,0 -0.51523,0.03356 -0.82319,0.100792 -0.37533,0.153652 -0.56279,0.311632 -0.56279,0.474893 v 5.301238 c -0.0746,0.182467 -0.17074,0.27413 -0.28863,0.27413 h -0.36121 v -4.797312 c 0,-0.0216 -0.0481,-0.03634 -0.14436,-0.04354 -0.24058,0 -0.51444,0.03356 -0.82238,0.100791 -0.37535,0.153652 -0.56279,0.312435 -0.56279,0.475699 v 4.264372 h -0.21688 c -0.0241,0 -0.0673,-0.0099 -0.12984,-0.02904 -0.14436,-0.100846 -0.21689,-0.283359 -0.21689,-0.547458 v -0.216082 c -0.16843,-0.336128 -0.53842,-0.50392 -1.11104,-0.50392 h -0.11534 c -0.0168,0 -0.0267,0.009 -0.029,0.02822 v 0.561973 c 0,0.196875 0.0187,0.417863 0.0573,0.662755 0.13479,0.710665 0.41427,1.06589 0.83771,1.06589 h 3.11786 c 0.59427,0 0.96996,-0.09577 1.12635,-0.28784 0.0675,0.249694 0.15866,0.374111 0.27416,0.374111 h 0.79658 c 0.004,0.0029 0.003,0.01117 0.0116,0.01117 h 1.99231 c 0.008,0 0.005,-0.0085 0.0116,-0.01117 h 1.29567 c 0.0964,0 0.19242,-0.01883 0.28866,-0.05724 0.41381,-0.184868 0.62003,-0.665315 0.62003,-1.440805 0,-0.206477 -0.0572,-0.528146 -0.17255,-0.965108 -0.51006,0.06723 -0.92896,0.100791 -1.25618,0.100791 -0.67365,0 -1.01026,-0.365041 -1.01026,-1.094918 v -0.201565 c 0,-0.710668 0.34636,-1.065892 1.03929,-1.065892 h 0.0573 v 1.152162 c 0,0.01921 0.009,0.02901 0.029,0.02901 h 1.31342 c 0.0191,0 0.029,-0.0099 0.029,-0.02901 V 16.88501 c -0.4523,-0.163259 -0.92827,-0.245103 -1.42871,-0.245103 h -0.18785 c -0.31519,0 -0.63304,0.04828 -0.95303,0.144326 -0.88538,0.300113 -1.32793,1.020382 -1.32793,2.160809 0,0.629037 0.13449,1.133225 0.40394,1.512564 0.44511,0.518598 1.02293,0.778053 1.73269,0.778053 h 0.31767 c 0.21412,0 0.43498,-0.02375 0.66356,-0.07176 v 0.01378 c -0.19248,0.211281 -0.55759,0.317671 -1.09652,0.317671 h -0.36445 c -0.001,-6.11e-4 -0.001,-0.0038 -0.004,-0.004 h -1.44725 c -0.004,-0.0027 -0.003,-0.0098 -0.0116,-0.01042 h -1.08282 c -0.0963,-0.0168 -0.14436,-0.353201 -0.14436,-1.008647 v -5.200452 c 0,-0.0216 -0.048,-0.03552 -0.14435,-0.04274 z m 53.112346,0 c -0.240593,0 -0.515243,0.03356 -0.8232,0.100792 -0.375329,0.153652 -0.562778,0.311632 -0.562778,0.474893 v 5.301238 c 0,0.0216 -0.01876,0.06498 -0.05725,0.129803 h -1.631897 c -0.03849,0 -0.05724,-0.0048 -0.05724,-0.01451 -0.149173,0 -0.240449,-0.201348 -0.274131,-0.604702 v -0.216091 c 0,-0.02401 -0.0099,-0.06739 -0.02901,-0.129818 -0.187661,-0.336126 -0.558481,-0.503919 -1.111848,-0.503919 h -0.08627 c -0.01683,0 -0.02662,0.009 -0.02901,0.02823 v 0.633729 c 0,0.122449 0.0048,0.262398 0.01451,0.418456 0.110667,1.03719 0.39918,1.555298 0.865933,1.555298 h 2.410755 c 0.594266,0 0.969974,-0.09577 1.126358,-0.28784 0.06737,0.249694 0.158647,0.374111 0.274134,0.374111 h 1.342444 c 0.01219,0 0.01407,-0.01 0.01854,-0.01775 h 0.977202 c 0.08662,0 0.197451,-0.01466 0.332185,-0.04354 0.567802,-0.180068 0.851422,-0.674438 0.851422,-1.483539 v -2.44865 c 0,-0.0216 -0.04808,-0.03634 -0.144327,-0.04354 -0.731405,0 -1.207366,0.163691 -1.428711,0.490214 -0.0098,0.657847 -0.01451,1.147304 -0.01451,1.469025 v 0.331381 c 0,0.489782 -0.1687,0.734514 -0.505533,0.734514 h -0.490211 c -0.0023,0 -0.0021,0.0036 -0.004,0.004 h -0.674851 c -0.09623,-0.0168 -0.144326,-0.3532 -0.144326,-1.008647 v -5.200453 c 0,-0.0216 -0.04808,-0.03552 -0.144327,-0.04274 z m -42.029336,0.08627 c -0.24058,0 -0.51523,0.03356 -0.82319,0.100791 -0.37532,0.153653 -0.56277,0.311633 -0.56277,0.474893 v 5.301238 c -0.0746,0.182468 -0.17076,0.274131 -0.28866,0.274131 h -0.36121 v -4.797315 c 0,-0.0216 -0.0481,-0.03553 -0.14436,-0.04274 -0.24058,0 -0.51444,0.03356 -0.82238,0.100769 -0.37535,0.153652 -0.56279,0.311633 -0.56279,0.474895 v 4.26437 h -0.21687 c -0.0241,0 -0.0672,-0.0099 -0.12985,-0.02901 -0.14436,-0.100835 -0.21689,-0.28336 -0.21689,-0.547457 v -0.216082 c -0.1684,-0.336127 -0.53842,-0.503919 -1.11104,-0.503919 h -0.11606 c -0.0168,0 -0.0257,0.0099 -0.0283,0.02901 v 0.561164 c 0,0.196873 0.0187,0.417863 0.0573,0.662754 0.13479,0.710667 0.41428,1.065891 0.83772,1.065891 h 3.0598 c 0.44751,0 0.7507,-0.03356 0.90948,-0.100791 0.25984,-0.132038 0.44321,-0.33831 0.54908,-0.619216 l 0.11533,-0.360403 v -6.050263 c 0,-0.0216 -0.048,-0.03553 -0.14436,-0.04274 z m 18.54991,0 c -0.0866,0.0071 -0.12985,0.02112 -0.12985,0.04274 v 6.050262 c 0.0191,0.02401 0.0331,0.07231 0.0428,0.144327 0.0794,0.326523 0.2098,0.561433 0.39024,0.705487 0.11069,0.153651 0.46684,0.230594 1.06831,0.230594 h 0.47571 c 0.004,0.0029 0.003,0.01117 0.0116,0.01117 h 1.99231 c 0.008,0 0.005,-0.0085 0.0116,-0.01117 h 1.29488 c 0.0962,0 0.1924,-0.01883 0.28863,-0.05724 0.41382,-0.184865 0.62083,-0.665315 0.62083,-1.440803 0,-0.206479 -0.0579,-0.528146 -0.17335,-0.96511 -0.51003,0.06723 -0.92815,0.100792 -1.25534,0.100792 -0.67368,0 -1.01108,-0.365043 -1.01108,-1.09492 v -0.201566 c 0,-0.710667 0.34639,-1.065891 1.03929,-1.065891 h 0.0581 v 1.152164 c 0,0.01921 0.009,0.02901 0.029,0.02901 h 1.3134 c 0.0191,0 0.029,-0.0099 0.029,-0.02901 v -2.031 c -0.45231,-0.163261 -0.92909,-0.245104 -1.42951,-0.245104 h -0.18705 c -0.31518,0 -0.63302,0.04828 -0.95301,0.144326 -0.8854,0.300112 -1.32793,1.020381 -1.32793,2.160808 0,0.629036 0.13449,1.133224 0.40394,1.512565 0.4451,0.518596 1.02291,0.778053 1.73266,0.778053 h 0.31687 c 0.21413,0 0.43581,-0.02375 0.66437,-0.07176 v 0.01378 c -0.19248,0.21128 -0.5584,0.31767 -1.09733,0.31767 h -0.36363 c -0.001,-6.09e-4 -0.001,-0.0038 -0.004,-0.004 h -1.40051 c -0.004,-0.0027 -0.003,-0.0096 -0.0116,-0.01042 h -0.86674 c -0.11316,0 -0.20926,-0.101486 -0.28865,-0.30316 V 15.86282 l -0.0145,-0.07257 c -0.20209,-0.316916 -0.62507,-0.474892 -1.26986,-0.474892 z m 13.421189,0 c -0.300742,0 -0.584366,0.04337 -0.851431,0.129818 -0.298332,0.146459 -0.447468,0.285598 -0.447468,0.41765 v 5.314941 c -0.07935,0.201675 -0.175576,0.30316 -0.288653,0.30316 h -0.183816 c 0,-0.0168 -0.0087,-0.02664 -0.02901,-0.02903 h -1.068315 c -0.06746,-0.02882 -0.110697,-0.158133 -0.129847,-0.388622 v -0.115296 c 0.05774,-0.381742 0.08632,-0.665745 0.08632,-0.850613 0,-0.453772 -0.06761,-0.842556 -0.202373,-1.166675 -0.365706,-0.835515 -1.106546,-1.252949 -2.222887,-1.252949 h -0.31768 c -0.54375,0.02882 -0.895,0.07219 -1.0538,0.129819 v 0.02823 c 0.048,0.597823 0.11099,0.972685 0.18787,1.123942 0.38014,-0.06962 0.75095,-0.108097 1.11184,-0.115296 0.673661,0 1.010257,0.408422 1.010257,1.224729 0,0.835511 -0.336596,1.252945 -1.010257,1.252945 -0.34886,0 -0.77755,-0.03846 -1.28519,-0.115296 0,0.0098 -0.004,0.01451 -0.0145,0.01451 0.0289,0.448968 0.082,0.823828 0.15884,1.123943 0.0434,0.06963 0.40925,0.117108 1.09734,0.143513 h 0.11534 c 0.793956,0 1.41988,-0.230002 1.877015,-0.690974 0.06253,0.432161 0.173386,0.648243 0.332163,0.648243 h 0.645826 v 0.01451 c 0,0.01921 0.0087,0.02823 0.02901,0.02823 h 1.226335 c 0.48119,0 0.803924,-0.09085 0.967527,-0.273325 0.06495,0.182469 0.146458,0.273325 0.245108,0.273325 h 1.342443 0.480535 c 0.570208,0 0.906803,-0.0622 1.010259,-0.187057 0.156386,-0.07682 0.300642,-0.297816 0.432968,-0.662754 0.01926,-0.132038 0.0388,-0.208984 0.05806,-0.230593 v -6.050314 c 0,-0.01921 -0.0383,-0.03313 -0.115295,-0.04274 -0.300742,0 -0.58517,0.04338 -0.852232,0.129817 -0.298336,0.14646 -0.44748,0.285599 -0.44748,0.417651 v 5.314941 c -0.0794,0.201675 -0.175564,0.30316 -0.288645,0.30316 h -0.278161 -1.082019 c -0.06977,-0.0312 -0.11296,-0.185084 -0.129803,-0.461187 v -5.661642 c 0,-0.01921 -0.03912,-0.03313 -0.116094,-0.04274 z m 14.403233,0 c -0.08662,0.0071 -0.129818,0.02112 -0.129818,0.04274 v 6.050262 c 0.01926,0.02401 0.03392,0.07231 0.04356,0.144327 0.0794,0.326523 0.208984,0.561433 0.38943,0.705487 0.110668,0.153651 0.466821,0.230594 1.068308,0.230594 h 1.068311 c 0.01436,0 0.01814,-0.01031 0.02176,-0.02096 h 0.511978 c 0.137145,0 0.238199,-0.163693 0.303161,-0.490211 h 0.01451 c 0.368111,0.364934 0.863624,0.547454 1.486763,0.547454 h 0.130631 c 0.613514,0 1.089475,-0.18252 1.428711,-0.547454 h 0.01451 c 0.0818,0.336123 0.18775,0.503917 0.317671,0.503917 h 0.649857 c 0.0036,0.0012 0.0023,0.0074 0.0071,0.0074 h 1.558523 c 0.541337,0 0.907266,-0.283198 1.097335,-0.849812 h 0.01451 c 0.242999,0.566614 0.62279,0.849812 1.140066,0.849812 h 0.08707 c 0.483595,0 0.825078,-0.225091 1.02477,-0.676462 h 0.02901 c 0.240595,0.451371 0.591857,0.676462 1.053795,0.676462 h 0.08627 c 0.08662,0 0.197454,-0.01393 0.332184,-0.04274 0.567803,-0.180069 0.851422,-0.675241 0.851422,-1.484347 v -2.448645 c 0,-0.0216 -0.04808,-0.03552 -0.144326,-0.04274 -0.41382,0.01921 -0.668913,0.04785 -0.765151,0.08627 -0.452318,0.12966 -0.678074,0.297444 -0.678074,0.503921 v 1.62786 c 0,0.412958 -0.101052,0.619219 -0.30316,0.619219 h -0.01451 c -0.12992,0 -0.226092,-0.09085 -0.288648,-0.273326 v -2.506694 c 0,-0.0168 -0.0099,-0.02662 -0.02901,-0.02901 h -0.100791 c -0.700129,0 -1.186673,0.120316 -1.458544,0.360404 v 1.829429 c 0,0.412957 -0.101052,0.619218 -0.303161,0.619218 -0.06977,0 -0.141497,-0.03356 -0.21608,-0.100791 -0.15398,-0.259299 -0.231399,-0.494208 -0.231399,-0.705488 v -2.002858 c 0,-0.0168 -0.009,-0.02582 -0.02823,-0.0282 h -0.05806 c -0.654417,0 -1.126293,0.109681 -1.415009,0.330569 l -0.04274,2.305131 c -0.115485,0.259299 -0.255654,0.389428 -0.41926,0.389428 h -0.07095 c -0.0035,-0.01042 -0.0077,-0.01991 -0.02258,-0.02176 h -1.082822 c -0.08662,-0.09364 -0.129818,-0.228676 -0.129818,-0.403945 0.02887,-0.237689 0.04843,-0.45377 0.05806,-0.648241 0,-0.328923 -0.05297,-0.654692 -0.158835,-0.978814 -0.30315,-0.749081 -0.899727,-1.123944 -1.789924,-1.123944 h -0.130616 c -0.334426,0 -0.632713,0.05239 -0.89496,0.158033 -0.721783,0.297709 -1.082016,0.941848 -1.082016,1.931017 v 0.05724 c 0,0.105643 0.01393,0.306995 0.04274,0.604704 -0.01451,0.235289 -0.05764,0.37033 -0.129818,0.403945 h -1.068313 c -0.0042,0 -0.0039,0.0061 -0.0071,0.0074 h -0.06451 c -0.113076,0 -0.209248,-0.101486 -0.288643,-0.30316 v -5.314941 l -0.01451,-0.07257 c -0.2021,-0.316916 -0.625889,-0.474892 -1.270685,-0.474892 z m -45.219742,0.115295 c -0.0866,0.0072 -0.12984,0.02112 -0.12984,0.04274 v 6.511448 l 0.0145,0.07176 c 0.20209,0.316919 0.62591,0.475698 1.27068,0.475698 0.0866,-0.0071 0.12985,-0.02194 0.12985,-0.04354 v -6.510654 l -0.0145,-0.07257 c -0.20211,-0.316918 -0.62588,-0.474895 -1.27069,-0.474895 z m 11.99975,1.108626 c -0.10572,0.0071 -0.15884,0.02194 -0.15884,0.04354 v 0.360403 h -2.19385 c -0.0648,0 -0.17093,0.02374 -0.31769,0.07176 -0.43308,0.225687 -0.64986,0.724963 -0.64986,1.498054 v 2.823563 c 0,0.01921 0.009,0.02901 0.029,0.02901 h 3.13236 c 0,0.02401 0.009,0.05757 0.029,0.100791 0.0336,0.283305 0.17306,0.542763 0.41846,0.778055 0.12028,0.163259 0.50578,0.244297 1.15538,0.244297 h 1.1691 c 0.013,0 0.0145,-0.01 0.0186,-0.01775 h 0.78613 c 0.0866,0 0.19745,-0.01466 0.33217,-0.04354 0.56782,-0.180067 0.85143,-0.674437 0.85143,-1.483539 v -2.44865 c 0,-0.02162 -0.048,-0.03634 -0.14435,-0.04356 -0.73141,0 -1.20738,0.16369 -1.42872,0.490213 -0.009,0.657848 -0.0145,1.147306 -0.0145,1.469027 v 0.331379 c 0,0.489782 -0.16869,0.734515 -0.50553,0.734515 h -0.49101 c -0.003,0 -0.001,0.0036 -0.004,0.004 h -0.32413 c -0.13231,0 -0.23824,-0.09658 -0.31765,-0.288648 v -4.004752 c -0.16841,-0.432161 -0.62564,-0.648241 -1.37148,-0.648241 z m -7.61121,1.354535 c -0.28148,0 -0.55045,0.03846 -0.80789,0.115295 -0.93351,0.338528 -1.40048,0.991677 -1.40048,1.95924 0,0.962761 0.42299,1.639652 1.26986,2.030999 0.22136,0.06002 0.33218,0.09849 0.33218,0.115296 -0.49802,0.218484 -0.81587,0.372355 -0.953,0.461189 -0.60629,0.223282 -0.90866,0.535133 -0.90866,0.936081 v 0.05724 c 0,0.230489 0.0718,0.489944 0.21607,0.778054 0.68331,-0.355334 1.45834,-0.749026 2.32449,-1.181189 0.73862,-0.307314 1.30096,-0.65272 1.68833,-1.036866 0.43306,-0.352932 0.64984,-0.962704 0.64984,-1.829429 0,-0.415354 -0.0626,-0.795129 -0.18785,-1.138457 -0.35849,-0.845117 -1.04144,-1.267457 -2.04955,-1.267457 z m 6.03817,0.100769 h 1.4142 v 2.117271 h -1.83346 c 0.009,-0.552208 0.0145,-0.984368 0.0145,-1.296484 v -0.158031 c 0,-0.441766 0.13521,-0.662756 0.40476,-0.662756 z m -36.21611,0.05724 c -0.0168,0 -0.0257,0.0099 -0.0283,0.02901 v 3.010618 c 0,0.06723 0.004,0.100792 0.0145,0.100792 0,0.254497 0.11084,0.542602 0.33219,0.864323 0.25744,0.288109 0.54186,0.432162 0.85223,0.432162 h 5.21095 c 0.10821,0 0.26717,-0.03846 0.47649,-0.115295 0.4812,-0.307316 0.72161,-0.748489 0.72161,-1.324706 v -2.967886 c 0,-0.0168 -0.009,-0.02662 -0.029,-0.02901 h -0.23061 c -0.31516,0 -0.61835,0.04338 -0.90947,0.129818 -0.29594,0.105644 -0.48825,0.254604 -0.57729,0.446675 l 0.0145,0.02901 c -0.009,0.05281 -0.0145,0.0962 -0.0145,0.129819 v 1.555296 c 0,0.04802 -0.004,0.12004 -0.0145,0.216081 0.009,0 0.0145,0.01466 0.0145,0.04354 v 0.07176 c -0.0434,0.470577 -0.19245,0.706295 -0.44749,0.706295 h -0.30315 l -0.029,0.01378 c 0,-0.0098 -0.004,-0.01378 -0.0145,-0.01378 h -2.52605 l -0.029,0.01378 c 0,-0.0098 -0.004,-0.01378 -0.0145,-0.01378 h -0.30317 c -0.24059,0 -0.38485,-0.216082 -0.43296,-0.648246 -0.009,-1.005976 -0.0145,-1.707413 -0.0145,-2.103562 v -0.01451 c -0.22617,-0.37454 -0.72167,-0.561973 -1.48676,-0.561973 z m 3.8838,0.07982 c -0.12026,0 -0.24171,0.03111 -0.36444,0.09352 -0.34884,0.213678 -0.52326,0.477239 -0.52326,0.79176 v 0.05078 c 0,0.07683 0.008,0.135752 0.025,0.176573 0.10583,0.285708 0.29982,0.428132 0.58133,0.428132 h 0.0499 c 0.077,0 0.16746,-0.01801 0.27091,-0.05401 0.40422,-0.211278 0.60633,-0.487935 0.60633,-0.831263 v -0.05401 c 0,-0.07443 -0.009,-0.132546 -0.029,-0.17335 -0.10594,-0.285709 -0.2982,-0.42813 -0.57729,-0.42813 z m 26.39493,0.928826 c 0.54854,0 0.8232,0.408418 0.8232,1.224724 0,0.28571 -0.0333,0.520621 -0.10084,0.70549 -0.10344,0.324124 -0.39275,0.607318 -0.86673,0.84981 l -0.0428,-0.05724 c -0.42345,-0.376943 -0.63536,-0.86721 -0.63536,-1.469833 0,-0.835516 0.27387,-1.252948 0.8224,-1.252948 z m 45.537407,0.245106 c 0.49081,0 0.736128,0.340498 0.736128,1.022351 v 0.115295 c 0,0.172864 -0.02363,0.350474 -0.07176,0.532945 -0.122709,0.326522 -0.334599,0.490212 -0.635342,0.490212 -0.490814,0 -0.736126,-0.360133 -0.736126,-1.080404 0,-0.720269 0.235534,-1.080403 0.7071,-1.080403 z m -54.068577,3.37828 -0.17335,0.01378 c -0.37531,0.112844 -0.56276,0.3723 -0.56276,0.778051 v 0.08627 c 0,0.117646 0.0194,0.233048 0.0581,0.345892 0.12999,0.297713 0.37524,0.446676 0.73614,0.446676 h 0.14435 l 0.17335,-0.01451 v 0.01451 c -0.0937,0.04802 -0.18103,0.07176 -0.26042,0.07176 h -0.10083 c -0.13232,0 -0.30592,-0.04747 -0.52004,-0.143515 l -0.0283,0.01451 c 0,0.0098 0.004,0.01378 0.0145,0.01378 0.0577,0.374541 0.10094,0.561969 0.12985,0.561969 h 0.11534 c 0.63516,0 0.95302,-0.172701 0.95302,-0.51843 v -0.04354 c 0,-0.14405 -0.0245,-0.278288 -0.0725,-0.403135 -0.12753,0.01921 -0.28156,0.03393 -0.46199,0.04354 -0.24059,0 -0.36041,-0.139147 -0.36041,-0.417651 0,-0.07681 0.004,-0.115296 0.0145,-0.115296 0,-0.220884 0.13044,-0.331376 0.39026,-0.331376 v 0.403135 c 0,0.01921 0.009,0.02901 0.029,0.02901 h 0.43297 c 0.0192,0 0.029,-0.0099 0.029,-0.02901 v -0.70549 c 0,-0.04081 -0.13044,-0.07437 -0.39024,-0.100769 z m 18.67972,0.01775 c -0.0963,0 -0.19242,0.01883 -0.28867,0.05724 -0.39456,0.199274 -0.5918,0.47346 -0.5918,0.821591 v 0.129819 c 0.0914,0.345728 0.28376,0.518431 0.57729,0.518431 h 0.087 c 0.27909,0 0.51952,-0.153871 0.72161,-0.461185 h 0.0145 c 0.0914,0.259295 0.2691,0.388621 0.53375,0.388621 h 0.0581 c 0.0336,0 0.0768,-0.004 0.12985,-0.01378 0.44272,-0.170464 0.66358,-0.434829 0.66358,-0.792564 v -0.08627 c 0,-0.0336 -0.004,-0.077 -0.0145,-0.129818 -0.10116,-0.268899 -0.28443,-0.403136 -0.54906,-0.403136 h -0.029 c -0.27428,0 -0.50002,0.134243 -0.67806,0.403136 h -0.029 c -0.0964,-0.28811 -0.2788,-0.432165 -0.54828,-0.432165 z m 27.824417,0 c -0.09623,0 -0.192408,0.01883 -0.288648,0.05724 -0.394575,0.199274 -0.591802,0.47346 -0.591802,0.821591 v 0.129819 c 0.09144,0.345728 0.284574,0.518431 0.578098,0.518431 h 0.08627 c 0.279087,0 0.519512,-0.153871 0.721611,-0.461185 h 0.01451 c 0.09144,0.259295 0.269099,0.388621 0.533752,0.388621 h 0.05806 c 0.03369,0 0.07688,-0.004 0.129819,-0.01378 0.442691,-0.170464 0.664365,-0.434829 0.664365,-0.792564 v -0.08627 c 0,-0.0336 -0.0048,-0.077 -0.01451,-0.129818 -0.101052,-0.268899 -0.283612,-0.403136 -0.548265,-0.403136 h -0.02901 c -0.274279,0 -0.500844,0.134243 -0.678881,0.403136 h -0.02901 c -0.09623,-0.28811 -0.278798,-0.432165 -0.548266,-0.432165 z m -40.764287,6.296985 c -0.3229,0 -0.48054,0.172113 -0.48054,0.51682 v 0.149969 h -0.21043 l -0.15804,0.254782 h 1.23925 v -0.254782 h -0.59341 V 29.51523 c 0,-0.172352 0.0603,-0.262039 0.1806,-0.262039 0.0826,0 0.14979,0.03794 0.20236,0.112887 l 0.16529,-0.210434 c -0.10518,-0.104905 -0.21742,-0.157221 -0.34508,-0.157221 z m -18.87885,1.206182 -0.71355,0.224948 v 3.641932 c 0,0.577001 0.35342,0.966719 0.99171,0.966719 h 0.7958 5.20368 3.8451 l -0.53295,-0.629699 h -1.93021 v -1.401301 c 0,-0.427132 0.27026,-0.749025 0.72082,-0.749025 0.22528,0 0.42849,0.105188 0.60871,0.322507 l 0.53297,-0.479731 c -0.30038,-0.292249 -0.65316,-0.441834 -1.05863,-0.441834 -0.4731,0 -0.84879,0.141759 -1.11913,0.426517 -0.26281,0.277262 -0.39829,0.629555 -0.39829,1.041701 v 1.281166 h -0.66839 -0.77321 v -0.321703 c 0,-0.606979 -0.0296,-1.034449 -0.0823,-1.289228 -0.0676,-0.344704 -0.21816,-0.614427 -0.44344,-0.816752 -0.34544,-0.314731 -0.79562,-0.47167 -1.35132,-0.47167 -0.56319,0 -1.0137,0.217077 -1.36662,0.644211 -0.34544,0.427133 -0.51869,0.943814 -0.51118,1.56578 0.008,0.292249 0.06,0.51701 0.14276,0.689362 h -0.81838 -0.70547 c -0.24782,0 -0.36848,-0.119808 -0.36848,-0.359597 z m 11.48212,0 -0.71356,0.224948 v 4.608651 h 0.71356 z m 5.34639,0 c -0.20276,0 -0.38299,0.180178 -0.38299,0.397491 0,0.20982 0.18023,0.38943 0.38299,0.38943 0.21025,0 0.39023,-0.17961 0.39023,-0.38943 0,-0.217313 -0.17998,-0.397491 -0.39023,-0.397491 z m 2.20031,0 -0.71354,0.224948 v 3.641932 c 0,0.577001 0.35342,0.966719 0.9917,0.966719 h 0.79579 0.39024 c 0.42803,0 0.77348,-0.127627 1.02879,-0.374918 0.25534,-0.247287 0.38299,-0.569227 0.38299,-0.9514 v -2.052765 l -0.7055,0.209628 v 1.790731 c 0,0.509561 -0.24775,0.764343 -0.74336,0.764343 h -0.35316 v -0.01529 h -0.70629 c -0.24781,0 -0.36766,-0.119808 -0.36766,-0.359596 z m 14.08718,0 -0.71276,0.224948 v 3.641932 c 0,0.577001 0.35262,0.966719 0.99091,0.966719 h 0.79579 0.35314 c 0.45808,0 0.8106,-0.134418 1.06591,-0.396686 0.25531,0.262276 0.60107,0.396686 1.04414,0.396686 h 0.45069 6.18006 0.299934 c 0.428032,0 0.773483,-0.127627 1.028796,-0.374918 0.255329,-0.254781 0.382985,-0.569227 0.382985,-0.9514 V 30.21991 l -0.712753,0.20963 v 3.214605 c 0,0.509564 -0.248016,0.764347 -0.736107,0.764347 h -0.262855 -0.736111 c 0.0301,-0.831787 -0.0825,-1.44574 -0.33784,-1.850393 -0.36045,-0.591993 -0.90832,-0.884385 -1.636729,-0.861908 -0.87859,0.02249 -1.5625,0.419361 -2.04309,1.206188 V 30.34005 l -0.71274,0.216888 v 3.85156 h -0.92399 v 0.01529 h -0.19512 c -0.49561,0 -0.74338,-0.247195 -0.74338,-0.741769 V 31.65909 l -0.7063,0.209628 v 1.790731 c 0,0.509561 -0.24752,0.764343 -0.75064,0.764343 h -0.308 v -0.01529 h -0.70548 c -0.24781,0 -0.36846,-0.119807 -0.36846,-0.359595 z m 13.238972,0 -0.713551,0.224948 v 4.608651 h 0.713551 z m 8.651294,0 -0.71355,0.224948 v 3.641932 c 0,0.577001 0.352618,0.966719 0.990909,0.966719 h 0.795789 0.150765 c 0.495616,0 0.863488,-0.134418 1.103786,-0.396686 0.262826,0.262276 0.607777,0.396686 1.043317,0.396686 0.510633,0 0.893872,-0.172353 1.141681,-0.509565 0.20275,-0.277262 0.307996,-0.644495 0.307996,-1.094109 0,-0.457109 -0.105253,-0.823868 -0.307996,-1.108623 -0.247809,-0.337212 -0.631048,-0.50231 -1.141681,-0.50231 -0.518143,0 -0.901131,0.165098 -1.148936,0.50231 -0.202754,0.284755 -0.307996,0.651514 -0.307996,1.108623 v 0.240269 c 0,0.502071 -0.247216,0.749025 -0.735321,0.749025 h -0.105632 v -0.01529 h -0.70549 c -0.247806,0 -0.36766,-0.119808 -0.36766,-0.359596 z m -30.044886,0.01529 c -0.21028,0 -0.39105,0.172353 -0.39105,0.382174 0,0.20982 0.18077,0.389429 0.39105,0.389429 0.21774,0 0.39748,-0.179609 0.39748,-0.389429 0,-0.209821 -0.17974,-0.382174 -0.39748,-0.382174 z m 1.01347,0 c -0.21026,0 -0.38297,0.172353 -0.38297,0.382174 0,0.20982 0.17271,0.389429 0.38297,0.389429 0.21026,0 0.39023,-0.179609 0.39023,-0.389429 0,-0.209821 -0.17997,-0.382174 -0.39023,-0.382174 z m 40.444998,0 c -0.217769,0 -0.397491,0.172353 -0.397491,0.382174 0,0.20982 0.179722,0.389429 0.397491,0.389429 0.210263,0 0.38298,-0.179609 0.38298,-0.389429 0,-0.209821 -0.172717,-0.382174 -0.38298,-0.382174 z m -15.986753,1.139262 c -0.210261,0 -0.382978,0.17961 -0.382978,0.389431 0,0.217313 0.172717,0.389429 0.382978,0.389429 0.21026,0 0.390235,-0.172116 0.390235,-0.389429 0,-0.209821 -0.179975,-0.389431 -0.390235,-0.389431 z m 1.006227,0 c -0.202753,0 -0.382981,0.17961 -0.382981,0.389431 0,0.217313 0.180228,0.389429 0.382981,0.389429 0.210259,0 0.390234,-0.172116 0.390234,-0.389429 0,-0.209821 -0.179975,-0.389431 -0.390234,-0.389431 z m -33.769872,0.299935 -0.7055,0.20963 v 1.790732 c 0,0.509559 -0.24775,0.764342 -0.74338,0.764342 h -0.36039 -0.81917 c 0.008,-0.374679 0.0156,-0.682011 0.0156,-0.91431 0,-1.168997 -0.48069,-1.753642 -1.43438,-1.753642 -0.51062,0 -0.90141,0.18753 -1.16425,0.554714 -0.21777,0.307237 -0.32975,0.704351 -0.32975,1.198928 0,0.449612 0.12766,0.809827 0.38296,1.079598 0.27035,0.292247 0.66033,0.441599 1.16346,0.449091 h 0.58615 c -0.06,0.44212 -0.40575,0.809262 -0.87882,0.816754 -0.36797,0.01497 -0.75826,-0.0747 -1.17878,-0.262036 l 0.31524,0.689361 c 0.20276,0.127395 0.49588,0.195116 0.87886,0.195116 0.44305,0 0.80311,-0.142324 1.08847,-0.434579 0.26281,-0.262276 0.42101,-0.592467 0.48858,-1.004616 h 0.8861 0.39749 c 0.42804,0 0.7735,-0.127627 1.02881,-0.374917 0.25532,-0.247288 0.38298,-0.569226 0.38298,-0.951399 z m 7.53219,0 c -0.95368,0 -1.43437,0.554288 -1.43437,1.663339 0,1.146514 0.48069,1.715744 1.43437,1.715744 0.5632,0 0.93106,-0.171877 1.10377,-0.524076 0.15769,0.352199 0.53339,0.524076 1.11912,0.524076 h 0.48778 3.84511 l -0.53375,-0.629697 h -1.9294 V 33.00716 c 0,-0.427132 0.27026,-0.749026 0.72082,-0.749026 0.22526,0 0.42768,0.105188 0.6079,0.322508 l 0.53297,-0.479731 c -0.30037,-0.292251 -0.65315,-0.441836 -1.05864,-0.441836 -0.47309,0 -0.84877,0.141759 -1.11911,0.426519 -0.26283,0.277262 -0.39749,0.629554 -0.39749,1.041699 v 1.281168 h -0.83368 v 0.01529 h -0.28543 c -0.48811,0 -0.73611,-0.254782 -0.73611,-0.764343 v -2.00036 z m 28.445252,0 -0.69823,0.187053 v 1.828626 c 0,0.48708 -0.248322,0.733707 -0.751445,0.733707 h -2.530081 c -0.495613,0 -0.744189,-0.246627 -0.744189,-0.733707 V 32.27346 l -0.705489,0.719197 v 0.757085 c 0,0.771839 0.540308,1.288423 1.351313,1.288423 h 2.666341 c 0.87859,0 1.41178,-0.501596 1.41178,-1.288423 z m 12.765702,0 c -0.608255,0 -1.156185,0.246624 -1.659309,0.733704 l 0.510372,0.472478 c 0.352935,-0.382171 0.735923,-0.57729 1.148937,-0.57729 0.488103,0 0.818445,0.210058 0.98365,0.629698 0.105122,0.254779 0.158032,0.666501 0.158032,1.236013 v 0.270101 h -3.079155 v -0.01529 h -1.021545 v -1.460964 c 0,-0.389665 -0.134983,-0.696522 -0.412812,-0.928824 -0.277845,-0.232302 -0.630905,-0.352343 -1.073954,-0.352343 -0.337918,0 -0.675565,0.149595 -1.013482,0.441838 v 0.809497 c 0.247807,-0.434626 0.585452,-0.652272 1.013482,-0.652272 0.518142,0 0.781277,0.24743 0.781277,0.734512 v 1.423874 h -1.847167 l -0.428129,0.614381 h 4.00233 3.807218 V 34.15371 c 0,-0.726875 -0.09744,-1.288419 -0.29268,-1.670595 -0.292863,-0.547028 -0.818626,-0.824006 -1.577065,-0.824006 z M -137.56114,32.138 c 0.5557,-0.0075 0.90847,0.202895 1.05864,0.645015 0.0826,0.217315 0.12013,0.6518 0.12013,1.303743 v 0.321703 h -0.89335 c 0.15769,-0.112395 0.2322,-0.35201 0.2322,-0.719193 0,-0.37468 -0.0898,-0.689127 -0.2701,-0.951402 -0.21778,-0.322225 -0.51843,-0.479732 -0.90142,-0.479732 0.16521,-0.08242 0.38357,-0.120142 0.65389,-0.120142 z m 21.61937,0.09757 h 0.76596 v 1.086854 c 0,0.367184 -0.0532,0.636574 -0.15072,0.801434 -0.11258,0.202326 -0.32231,0.299932 -0.61517,0.299932 -0.29287,0 -0.50336,-0.09761 -0.616,-0.299932 -0.0977,-0.16486 -0.14994,-0.43425 -0.14994,-0.801434 0,-0.367184 0.0524,-0.636814 0.14994,-0.794179 0.11259,-0.194832 0.32313,-0.292675 0.616,-0.292675 z m 15.35625,0.104818 c 0.42803,0.02249 0.751119,0.195073 0.976399,0.502311 0.19525,0.352196 0.29268,0.756662 0.29268,1.228756 0,0.112393 -0.008,0.224616 -0.0297,0.337021 h -3.341999 c 0.10518,-0.479587 0.33833,-0.928682 0.70629,-1.34083 0.42802,-0.50207 0.89335,-0.749737 1.39646,-0.727258 z m -26.98107,0.03789 c 0.30788,0 0.51811,0.126815 0.62325,0.374111 0.0676,0.157363 0.0975,0.40489 0.0975,0.757089 l -0.008,0.91431 h -0.66115 c -0.55569,0 -0.83368,-0.307333 -0.83368,-0.91431 0,-0.756854 0.26313,-1.1312 0.78128,-1.1312 z m 44.75533,0.0524 c 0.488103,0 0.736124,0.336882 0.736124,1.003809 0,0.666926 -0.248021,0.996551 -0.736124,0.996551 -0.495617,0 -0.743383,-0.329625 -0.743383,-0.996551 0,-0.666927 0.247766,-1.003809 0.743383,-1.003809 z m -55.43358,0.404749 c 0.1652,0 0.30041,0.08969 0.40555,0.262038 0.10518,0.172353 0.15803,0.367232 0.15803,0.584547 0,0.412148 -0.19564,0.72645 -0.56358,0.72645 -0.36798,0 -0.55552,-0.314302 -0.55552,-0.72645 0,-0.217315 0.0523,-0.412194 0.14994,-0.584547 0.10518,-0.172354 0.24034,-0.262038 0.40556,-0.262038 z m 18.12015,2.86952 c -0.20277,0 -0.383,0.172355 -0.383,0.382172 0,0.209821 0.18023,0.390236 0.383,0.390236 0.21025,0 0.39022,-0.180415 0.39022,-0.390236 0,-0.209817 -0.17997,-0.382172 -0.39022,-0.382172 z m 14.58301,0.0081 c -0.21024,0 -0.39021,0.179846 -0.39021,0.382169 0,0.209819 0.17997,0.38943 0.39021,0.38943 0.21029,0 0.383,-0.179611 0.383,-0.38943 0,-0.202323 -0.17271,-0.382169 -0.383,-0.382169 z m -21.39844,1.519819 -0.2717,0.09191 v 2.965469 c 0,0.443354 0.20793,0.667591 0.61759,0.667591 h 0.60632 1.66172 c 0.33467,0 0.57106,-0.05749 0.70953,-0.166898 0.1442,-0.109406 0.21365,-0.33997 0.21365,-0.679687 v -0.926406 c 0,-0.236072 -0.0749,-0.432195 -0.22493,-0.593416 -0.17889,-0.178494 -0.4333,-0.270907 -0.75065,-0.270907 -0.66356,0 -1.03284,0.345538 -1.03284,0.852231 0,0.305164 0.0518,0.518456 0.14994,0.639372 0.12129,0.143949 0.34031,0.212855 0.66921,0.212855 h 0.91753 v 0.172542 c 0,0.40881 -0.1842,0.518434 -0.72079,0.518434 h -1.5924 -0.5539 c -0.26543,0 -0.3983,-0.143455 -0.3983,-0.431357 z m 2.22692,0 c -0.12129,0 -0.17899,0.06291 -0.17899,0.183832 0,0.12667 0.0579,0.190276 0.17899,0.190276 0.12128,0 0.18464,-0.06361 0.18464,-0.190276 0,-0.120911 -0.0635,-0.183832 -0.18464,-0.183832 z m 0.65792,0 c -0.12128,0 -0.18464,0.06291 -0.18464,0.183832 0,0.12667 0.0635,0.190276 0.18464,0.190276 0.1213,0 0.18463,-0.06361 0.18463,-0.190276 0,-0.120911 -0.0635,-0.183832 -0.18463,-0.183832 z m 1.49403,0 -0.27092,0.09191 v 2.965469 c 0,0.443354 0.20795,0.667591 0.61761,0.667591 h 0.60551 0.15555 c 0.58276,0 0.95221,-0.391856 0.95221,-0.961881 v -1.646406 l -0.2709,0.09191 v 1.508536 c 0,0.512449 -0.23707,0.765958 -0.71599,0.765958 h -0.12085 -0.5539 c -0.26542,0 -0.39829,-0.143455 -0.39829,-0.431357 z m 7.47816,0 -0.2709,0.09191 v 2.965469 c 0,0.443354 0.20713,0.667591 0.6168,0.667591 h 0.6063 0.15556 c 0.58276,0 0.9522,-0.391856 0.9522,-0.961881 v -1.646406 l -0.2717,0.09191 v 1.508536 c 0,0.512449 -0.23626,0.765958 -0.71517,0.765958 h -0.12085 -0.55388 c -0.26544,0 -0.39832,-0.143455 -0.39832,-0.431357 z m 24.816236,0 c -0.121171,0 -0.184637,0.06291 -0.184637,0.183832 0,0.12667 0.06347,0.190276 0.184637,0.190276 0.121172,0 0.184636,-0.06361 0.184636,-0.190276 0,-0.120911 -0.06347,-0.183832 -0.184636,-0.183832 z m 0.657916,0 c -0.121171,0 -0.184636,0.06291 -0.184636,0.183832 0,0.12667 0.06348,0.190276 0.184636,0.190276 0.121172,0 0.178992,-0.06361 0.178992,-0.190276 0,-0.120911 -0.05783,-0.183832 -0.178992,-0.183832 z m 5.273823,0 c -0.121171,0 -0.184635,0.06291 -0.184635,0.183832 0,0.12667 0.06347,0.190276 0.184635,0.190276 0.121173,0 0.178994,-0.06361 0.178994,-0.190276 0,-0.120911 -0.05783,-0.183832 -0.178994,-0.183832 z m 10.593607,0 c -0.121173,0 -0.184638,0.06291 -0.184638,0.183832 0,0.12667 0.06347,0.190276 0.184638,0.190276 0.121171,0 0.184635,-0.06361 0.184635,-0.190276 0,-0.120911 -0.06348,-0.183832 -0.184635,-0.183832 z m 0.657915,0 c -0.121171,0 -0.184636,0.06291 -0.184636,0.183832 0,0.12667 0.06348,0.190276 0.184636,0.190276 0.121171,0 0.178993,-0.06361 0.178993,-0.190276 0,-0.120911 -0.05783,-0.183832 -0.178993,-0.183832 z m -39.096907,0.01117 -0.27171,0.08064 v 3.633061 h 0.27171 z m 8.03126,0 -0.2709,0.08064 v 2.625223 c 0,0.512449 -0.23625,0.765958 -0.71516,0.765958 h -0.3467 v 0.0056 h -0.41524 v -0.436998 c 0,-0.477901 -0.0172,-0.800663 -0.0458,-0.961882 -0.0405,-0.224559 -0.1448,-0.420102 -0.31204,-0.581323 -0.25965,-0.259101 -0.57717,-0.391845 -0.95221,-0.391845 -0.37505,0 -0.6982,0.132748 -0.95785,0.391845 -0.23079,0.230317 -0.34589,0.639038 -0.34589,1.226338 0,0.339717 0.0694,0.592759 0.21366,0.748223 h -0.59422 -0.81917 v -1.220697 c 0,-0.598816 -0.39258,-0.967525 -0.98687,-0.967525 -0.29428,0 -0.53687,0.110043 -0.72726,0.334602 v 0.449094 c 0.14422,-0.362745 0.38683,-0.541814 0.72726,-0.541814 0.47313,0 0.7095,0.25351 0.7095,0.765956 v 1.180384 h -1.53513 l -0.16125,0.24188 h 2.79292 3.73304 0.0573 c 0.58276,0 0.95219,-0.391856 0.95219,-0.961882 z m 0.84255,0 -0.2709,0.08064 v 3.633061 h 0.2709 z m 4.379679,0 c -0.12129,0 -0.179,0.05739 -0.179,0.172544 0,0.12667 0.0579,0.190277 0.179,0.190277 0.12129,0 0.18463,-0.06362 0.18463,-0.190277 0,-0.115166 -0.0635,-0.172544 -0.18463,-0.172544 z m 4.367563,0 -0.270895,0.08064 v 2.625223 c 0,0.512449 -0.237207,0.765958 -0.710329,0.765958 h -0.02263 -0.253992 c -0.478898,0 -0.715162,-0.247515 -0.715162,-0.736933 v -1.629482 l -0.271706,0.08627 v 1.514179 c 0,0.512449 -0.23638,0.765958 -0.709532,0.765958 h -0.109681 c -0.525067,0.01727 -0.807546,2.18e-4 -0.859496,-0.05159 0.201976,-0.109405 0.357896,-0.282587 0.473286,-0.507142 0.109681,-0.213042 0.166904,-0.442696 0.166904,-0.684526 0,-0.305166 -0.08651,-0.564433 -0.259609,-0.765958 -0.190403,-0.224557 -0.455931,-0.345665 -0.807881,-0.357177 -0.64624,-0.01727 -1.01503,0.328262 -1.05541,0.852226 -0.0405,0.598819 0.24222,1.088317 0.85384,1.462577 -0.0405,0.02879 -0.20186,0.05149 -0.48458,0.05725 l -1.292439,-0.0056 c -0.47892,0 -0.71597,-0.253508 -0.71597,-0.765958 v -1.082017 l -0.27092,0.339439 v 0.788536 c 0,0.598816 0.36356,0.96188 0.95785,0.96188 h 1.627059 c 0.18465,0 0.35148,-0.03479 0.50149,-0.109652 0.21349,0.07486 0.3755,0.109652 0.496677,0.109652 h 0.669199 0.138697 c 0.386582,0 0.663266,-0.143572 0.824813,-0.42571 0.167336,0.282136 0.432964,0.42571 0.802253,0.42571 h 0.294281 0.05164 c 0.386596,0 0.664064,-0.143572 0.825625,-0.42571 0.167336,0.282136 0.43216,0.42571 0.801435,0.42571 h 0.29429 3.006592 0.172542 c 0.582765,0 0.952207,-0.391856 0.952207,-0.96188 v -1.646406 l -0.270907,0.09191 v 1.508535 c 0,0.51245 -0.236259,0.765958 -0.715164,0.765958 h -0.138668 -2.135005 v -1.341638 c 0,-0.443353 0.265737,-0.782888 0.686943,-0.782888 0.225025,0 0.38648,0.06913 0.484569,0.201569 l 0.201565,-0.195926 c -0.173098,-0.166978 -0.381035,-0.247523 -0.617603,-0.247523 -0.323117,0 -0.576482,0.10382 -0.761117,0.316865 -0.178871,0.21304 -0.271715,0.477381 -0.271715,0.799821 v 1.24972 h -0.594218 -0.253974 c -0.478915,0 -0.715174,-0.247514 -0.715174,-0.736933 z m 2.573623,0 c -0.121171,0 -0.178993,0.05739 -0.178993,0.172544 0,0.12667 0.05783,0.190277 0.178993,0.190277 0.121172,0 0.184636,-0.06362 0.184636,-0.190277 0,-0.115166 -0.06348,-0.172544 -0.184636,-0.172544 z m -38.047155,0.915166 c -0.12128,0 -0.18462,0.06371 -0.18462,0.184635 0,0.120925 0.0635,0.178187 0.18462,0.178187 0.12129,0 0.17899,-0.05728 0.17899,-0.178187 0,-0.120924 -0.0579,-0.184635 -0.17899,-0.184635 z m 0.64583,0 c -0.12129,0 -0.17819,0.06371 -0.17819,0.184635 0,0.120925 0.0572,0.178187 0.17819,0.178187 0.12129,0 0.18465,-0.05728 0.18465,-0.178187 0,-0.120924 -0.0635,-0.184635 -0.18465,-0.184635 z m -6.21394,0.190283 -0.27091,0.08627 v 2.343833 c 0,0.299406 -0.0696,0.541391 -0.20239,0.725642 -0.1442,0.218801 -0.35744,0.328154 -0.64016,0.328154 -0.22502,0 -0.43835,-0.04655 -0.63454,-0.138668 l 0.11534,0.265264 c 0.16157,0.07486 0.33458,0.108839 0.51923,0.108839 0.36352,0 0.64073,-0.120996 0.83691,-0.362822 0.18465,-0.230314 0.27655,-0.541207 0.27655,-0.9385 z m 7.81842,0 -0.26527,0.08627 v 1.51418 c 0,0.512449 -0.23638,0.765958 -0.70951,0.765958 h -1.95037 c -0.47891,0 -0.71597,-0.253509 -0.71597,-0.765958 v -1.082019 l -0.27091,0.339441 v 0.788533 c 0,0.593061 0.3581,0.961882 0.90624,0.961882 h 2.05924 c 0.58276,0 0.94655,-0.368821 0.94655,-0.961882 z m 43.586235,0 -0.271713,0.08627 v 2.343833 c 0,0.299406 -0.06886,0.541391 -0.20157,0.725642 -0.14424,0.218801 -0.357453,0.328154 -0.640179,0.328154 -0.225028,0 -0.439163,-0.04655 -0.635341,-0.138668 l 0.116093,0.265264 c 0.161561,0.07486 0.334603,0.108839 0.519239,0.108839 0.334657,0 0.599738,-0.103125 0.790147,-0.310416 0.178869,-0.190006 0.288819,-0.460912 0.317673,-0.800627 h 0.830458 0.109653 c 0.386586,0 0.664065,-0.143572 0.825621,-0.425711 0.158932,0.267977 0.408979,0.406358 0.749832,0.420069 v 0.0056 h 4.056353 3.617744 0.126583 c 0.582762,0 0.952204,-0.391855 0.952204,-0.96188 V 38.34954 l -0.270909,0.09191 v 1.508536 c 0,0.512449 -0.237062,0.765957 -0.715966,0.765957 h -0.09191 -0.894158 V 40.28455 c 0,-0.604572 -0.06967,-1.042568 -0.202374,-1.324704 -0.190408,-0.408807 -0.559799,-0.610346 -1.102173,-0.610346 -0.386587,0 -0.744135,0.161434 -1.078791,0.478117 l 0.190281,0.189473 c 0.282727,-0.27062 0.582703,-0.40878 0.88851,-0.40878 0.444285,0 0.738619,0.184602 0.882868,0.553103 0.09231,0.224558 0.138668,0.599172 0.138668,1.123137 v 0.431356 h -2.723585 v 0.0056 h -0.455545 v -0.436999 c 0,-0.4779 -0.01792,-0.800663 -0.04676,-0.96188 -0.04039,-0.224559 -0.143891,-0.420102 -0.31122,-0.581324 -0.259645,-0.259101 -0.57716,-0.391846 -0.952205,-0.391846 -0.375048,0 -0.698205,0.132749 -0.957852,0.391846 -0.230797,0.230317 -0.345891,0.639038 -0.345891,1.226338 0,0.339718 0.06942,0.592758 0.213661,0.748223 h -0.825621 c -0.478905,0 -0.715163,-0.247515 -0.715163,-0.736933 v -1.629474 l -0.270907,0.08627 v 1.51418 c 0,0.512447 -0.237189,0.765957 -0.710326,0.765957 h -0.08064 -0.824818 z m -54.243535,0.09757 c -0.66355,0 -0.99252,0.420361 -0.99252,1.261009 0,0.834887 0.32897,1.24972 0.99252,1.24972 0.27119,0 0.49599,-0.09241 0.67485,-0.270904 0.0116,0 0.0178,0.02938 0.0178,0.09272 0.005,0.299408 -0.0631,0.541393 -0.19592,0.725644 -0.15009,0.218801 -0.36404,0.328154 -0.64099,0.328154 -0.2308,0 -0.44401,-0.04655 -0.64018,-0.138668 l 0.12086,0.265264 c 0.16156,0.07486 0.33462,0.108839 0.51924,0.108839 0.36352,0 0.64073,-0.126524 0.83691,-0.37411 0.17888,-0.224555 0.26527,-0.535679 0.26527,-0.927213 l 0.029,-1.122331 c 0.0116,-0.339712 -0.0633,-0.622141 -0.23061,-0.840941 -0.17888,-0.236072 -0.42739,-0.357178 -0.75628,-0.357178 z m 4.32725,0 c -0.66352,0 -0.99171,0.420361 -0.99171,1.261009 0,0.834887 0.32819,1.24972 0.99171,1.24972 0.2712,0 0.49681,-0.09241 0.67566,-0.270904 0.0116,0 0.0169,0.02938 0.0169,0.09272 0.005,0.299408 -0.0633,0.541393 -0.19591,0.725644 -0.15011,0.218801 -0.36324,0.328154 -0.64019,0.328154 -0.23081,0 -0.4448,-0.04655 -0.64099,-0.138668 l 0.12099,0.265264 c 0.16155,0.07486 0.3354,0.108839 0.52004,0.108839 0.36351,0 0.63993,-0.126524 0.83611,-0.37411 0.17886,-0.224555 0.26526,-0.535679 0.26526,-0.927213 l 0.029,-1.122331 c 0.0116,-0.339712 -0.0633,-0.622141 -0.23059,-0.840941 -0.17886,-0.236072 -0.4274,-0.357178 -0.75629,-0.357178 z m 46.142933,0 c -0.663542,0 -0.992521,0.420361 -0.992521,1.261009 0,0.834887 0.328979,1.24972 0.992521,1.24972 0.271186,0 0.495983,-0.09241 0.674848,-0.270904 0.0116,0 0.01693,0.02938 0.01693,0.09272 0.0058,0.299408 -0.06323,0.541393 -0.195923,0.725644 -0.150016,0.218801 -0.363224,0.328154 -0.64018,0.328154 -0.2308,0 -0.44481,-0.04655 -0.640986,-0.138668 l 0.12175,0.265264 c 0.161561,0.07486 0.334603,0.108839 0.519243,0.108839 0.363504,0 0.639923,-0.126524 0.836103,-0.37411 0.17887,-0.224555 0.266071,-0.535679 0.266071,-0.927213 l 0.02822,-1.122331 c 0.0116,-0.339712 -0.06327,-0.622141 -0.230594,-0.840941 -0.178867,-0.236072 -0.42659,-0.357178 -0.755476,-0.357178 z m -52.945443,0.08064 c -0.29426,0 -0.53685,0.110044 -0.72725,0.334602 v 0.449093 c 0.14421,-0.362744 0.38683,-0.541814 0.72725,-0.541814 0.47315,0 0.70953,0.25351 0.70953,0.765957 v 1.180383 h -1.53435 l -0.16205,0.24188 h 1.97375 V 39.49522 c 0,-0.598817 -0.39257,-0.967525 -0.98688,-0.967525 z m 16.53664,0.03468 c 0.43275,0 0.70386,0.259582 0.70386,0.628083 v 0.615994 h -0.80143 c -0.27118,0 -0.44478,-0.04033 -0.53132,-0.120939 -0.0866,-0.08063 -0.12651,-0.24735 -0.12651,-0.500696 0,-0.391535 0.29388,-0.622441 0.75548,-0.622441 z m 17.17117,0.04595 c 0.2885,0 0.53107,0.09852 0.72726,0.294291 0.12695,0.13243 0.20794,0.293752 0.24832,0.483764 0.0289,0.161219 0.0402,0.460588 0.0402,0.898185 v 0.431356 h -0.97559 c 0.14421,-0.166978 0.21366,-0.420023 0.21366,-0.748223 0,-0.662152 -0.25968,-0.990904 -0.7732,-0.990904 -0.11549,0 -0.21879,0.02339 -0.31688,0.06369 0.19041,-0.287891 0.4726,-0.432161 0.83612,-0.432161 z m 27.528525,0 c 0.288495,0 0.531078,0.09852 0.727257,0.294291 0.126946,0.13243 0.207941,0.293752 0.248332,0.483764 0.02886,0.161219 0.04032,0.460588 0.04032,0.898185 v 0.431356 h -0.975588 c 0.14424,-0.166978 0.213661,-0.420023 0.213661,-0.748223 0,-0.662152 -0.259689,-0.990904 -0.773215,-0.990904 -0.115397,0 -0.218774,0.02339 -0.316863,0.06369 0.190407,-0.287891 0.472596,-0.432161 0.836103,-0.432161 z m -19.196516,0.0064 c 0.24811,0.0058 0.44445,0.09725 0.582934,0.275745 0.121284,0.161221 0.184629,0.362991 0.184629,0.599062 0,0.236073 -0.05807,0.449249 -0.167708,0.645017 -0.132755,0.21304 -0.299415,0.350859 -0.507135,0.425713 -0.25964,-0.109405 -0.47905,-0.281557 -0.65792,-0.517629 -0.17309,-0.241829 -0.25962,-0.478285 -0.25962,-0.714356 0,-0.230314 0.0803,-0.414222 0.24189,-0.546652 0.14421,-0.120925 0.34059,-0.178416 0.58293,-0.1669 z m -39.564559,0.07418 c 0.4789,0 0.72161,0.3397 0.72161,1.019126 0,0.673669 -0.24271,1.013482 -0.72161,1.013482 -0.4789,0 -0.72082,-0.339813 -0.72082,-1.013482 0,-0.679426 0.24192,-1.019126 0.72082,-1.019126 z m 4.32725,0 c 0.47892,0 0.72164,0.3397 0.72164,1.019126 0,0.673669 -0.24272,1.013482 -0.72164,1.013482 -0.47889,0 -0.72079,-0.339813 -0.72079,-1.013482 0,-0.679426 0.2419,-1.019126 0.72079,-1.019126 z m 46.142933,0 c 0.478906,0 0.720806,0.3397 0.720806,1.019126 0,0.673669 -0.2419,1.013482 -0.720806,1.013482 -0.478904,0 -0.721614,-0.339813 -0.721614,-1.013482 0,-0.679426 0.24271,-1.019126 0.721614,-1.019126 z m -19.756873,0.53617 c 0.35196,0 0.52568,0.247401 0.52568,0.742573 0,0.500936 -0.17372,0.748223 -0.52568,0.748223 -0.1501,0 -0.2767,-0.05197 -0.38057,-0.155617 -0.10387,-0.103647 -0.15555,-0.298961 -0.15555,-0.592613 0,-0.495172 0.17845,-0.742575 0.53618,-0.742575 z m 27.528525,0 c 0.351966,0 0.524883,0.247401 0.524883,0.742573 0,0.500936 -0.172917,0.748223 -0.524883,0.748223 -0.150016,0 -0.2767,-0.05197 -0.380561,-0.155617 -0.103863,-0.103647 -0.155601,-0.298961 -0.155601,-0.592613 0,-0.495172 0.178436,-0.742575 0.53617,-0.742575 z m -38.871945,0.235424 v 0.247526 h 2.14063 v -0.247526 z m -1.95039,2.245467 c -0.1213,0 -0.17899,0.05819 -0.17899,0.173348 0,0.12667 0.0578,0.189475 0.17899,0.189475 0.12128,0 0.18464,-0.0628 0.18464,-0.189475 0,-0.115165 -0.0635,-0.173348 -0.18464,-0.173348 z m 7.02181,0 c -0.12129,0 -0.17818,0.05819 -0.17818,0.173348 0,0.12667 0.057,0.189475 0.17818,0.189475 0.12129,0 0.18465,-0.0628 0.18465,-0.189475 0,-0.115165 -0.0635,-0.173348 -0.18465,-0.173348 z m 0.6523,0 c -0.12129,0 -0.17902,0.05819 -0.17902,0.173348 0,0.12667 0.0579,0.189475 0.17902,0.189475 0.12128,0 0.18461,-0.0628 0.18461,-0.189475 0,-0.115165 -0.0635,-0.173348 -0.18461,-0.173348 z m 16.380995,0 c -0.121288,0 -0.184644,0.05819 -0.184644,0.173348 0,0.12667 0.06354,0.189475 0.184644,0.189475 0.121288,0 0.178987,-0.0628 0.178987,-0.189475 0,-0.115165 -0.05789,-0.173348 -0.178987,-0.173348 z m 0.652283,0 c -0.121287,0 -0.18463,0.05819 -0.18463,0.173348 0,0.12667 0.06354,0.189475 0.18463,0.189475 0.121287,0 0.178174,-0.0628 0.178174,-0.189475 0,-0.115165 -0.05702,-0.173348 -0.178174,-0.173348 z m 13.570354,0 c -0.121171,0 -0.184636,0.05819 -0.184636,0.173348 0,0.12667 0.06347,0.189475 0.184636,0.189475 0.121172,0 0.178993,-0.0628 0.178993,-0.189475 0,-0.115165 -0.05783,-0.173348 -0.178993,-0.173348 z m 0.652273,0 c -0.121171,0 -0.184635,0.05819 -0.184635,0.173348 0,0.12667 0.06348,0.189475 0.184635,0.189475 0.121171,0 0.178993,-0.0628 0.178993,-0.189475 0,-0.115165 -0.05781,-0.173348 -0.178993,-0.173348 z m 5.959962,0.0064 c -0.121171,0 -0.184636,0.06291 -0.184636,0.18383 0,0.12091 0.06347,0.178992 0.184636,0.178992 0.121172,0 0.178993,-0.05808 0.178993,-0.178992 0,-0.120925 -0.05783,-0.18383 -0.178993,-0.18383 z" /></g></svg>
