<?xml version="1.0" encoding="UTF-8" standalone="no"?>
<!-- Created with Inkscape (http://www.inkscape.org/) -->

<svg
   width="88.90004mm"
   height="50.799999mm"
   viewBox="0 0 88.900043 50.799999"
   version="1.1"
   id="svg1"
   xml:space="preserve"
   sodipodi:docname="شعار ايكلاتورا.svg"
   inkscape:version="1.4 (86a8ad7, 2024-10-11)"
   inkscape:export-filename="شعار ايكلاتورا.png"
   inkscape:export-xdpi="300"
   inkscape:export-ydpi="300"
   xmlns:inkscape="http://www.inkscape.org/namespaces/inkscape"
   xmlns:sodipodi="http://sodipodi.sourceforge.net/DTD/sodipodi-0.dtd"
   xmlns="http://www.w3.org/2000/svg"
   xmlns:svg="http://www.w3.org/2000/svg"><sodipodi:namedview
     id="namedview1"
     pagecolor="#505050"
     bordercolor="#eeeeee"
     borderopacity="1"
     inkscape:showpageshadow="0"
     inkscape:pageopacity="0"
     inkscape:pagecheckerboard="0"
     inkscape:deskcolor="#505050"
     inkscape:document-units="mm"
     inkscape:zoom="0.97386896"
     inkscape:cx="-2239.521"
     inkscape:cy="-1761.5306"
     inkscape:window-width="1920"
     inkscape:window-height="986"
     inkscape:window-x="-11"
     inkscape:window-y="-11"
     inkscape:window-maximized="1"
     inkscape:current-layer="layer1"
     showguides="true"><sodipodi:guide
       position="338.6512,108.79872"
       orientation="1,0"
       id="guide15"
       inkscape:locked="false" /><inkscape:page
       x="2.8700042e-06"
       y="-1.7676269e-06"
       width="88.90004"
       height="50.799995"
       id="page50"
       margin="0"
       bleed="0" /></sodipodi:namedview><defs
     id="defs1" /><g
     inkscape:label="طبقة 1"
     inkscape:groupmode="layer"
     id="layer1"
     transform="translate(1394.135,-730.36351)"><rect
       style="fill:#1c3965;fill-opacity:1;stroke-width:0.151207;stroke-dashoffset:8"
       id="rect7"
       width="88.90004"
       height="50.799999"
       x="-1394.135"
       y="730.36353" /><path
       id="path32-9"
       style="font-weight:300;font-size:52.0243px;line-height:209.932px;font-family:Muslimah;-inkscape-font-specification:'Muslimah Light';text-align:center;letter-spacing:0px;text-anchor:middle;opacity:0.0917431;fill:#e6e6e6;stroke-width:6.74566;stroke-dashoffset:8"
       d="m -1312.798,735.49458 c -0.4908,2.29002 -2.1198,3.97205 -4.0538,3.97217 2.3225,1.6e-4 4.2052,2.42506 4.2052,5.41628 -10e-5,-2.99138 1.8826,-5.41636 4.2052,-5.41628 -1.9342,7e-5 -3.5634,-1.68201 -4.0542,-3.97217 z m 7.5631,6.84088 c 0,2.2774 -1.4376,4.12223 -3.2065,4.12239 1.769,8e-5 3.2034,1.84499 3.2065,4.12238 z m -6.2043,4.84586 c -10e-5,2.99113 -1.8828,5.4161 -4.2052,5.41626 2.3225,1.6e-4 4.2053,2.42506 4.2052,5.41627 -10e-5,-2.99137 1.8825,-5.41635 4.2052,-5.41627 -2.3226,8e-5 -4.2051,-2.42497 -4.2052,-5.41626 z m 6.2043,11.50647 c -0.5482,0.56374 -1.2431,0.90082 -1.9991,0.90088 0.756,4e-5 1.4509,0.33712 1.9991,0.90088 z m -5.5608,1.62394 c -1e-4,2.99114 -1.8829,5.41611 -4.2052,5.41627 2.3224,1.6e-4 4.2053,2.42506 4.2052,5.41627 -1e-4,-2.99137 1.8825,-5.41635 4.2052,-5.41627 -2.3226,8e-5 -4.2051,-2.42497 -4.2052,-5.41627 z m 5.5608,12.02087 c -0.4117,0.24778 -0.8711,0.38645 -1.3556,0.3865 0.4845,10e-6 0.9439,0.1383 1.3556,0.38609 z" /><path
       id="path11"
       style="font-weight:300;font-size:52.0243px;line-height:209.932px;font-family:Muslimah;-inkscape-font-specification:'Muslimah Light';text-align:center;letter-spacing:0px;text-anchor:middle;opacity:0.0917431;fill:#e6e6e6;stroke-width:6.74566;stroke-dashoffset:8"
       d="m -1386.5718,735.49458 c 0.4908,2.29002 2.1198,3.97205 4.0538,3.97217 -2.3225,1.6e-4 -4.2052,2.42506 -4.2052,5.41628 10e-5,-2.99138 -1.8826,-5.41636 -4.2052,-5.41628 1.9342,7e-5 3.5634,-1.68201 4.0542,-3.97217 z m -7.5631,6.84088 c 0,2.2774 1.4376,4.12223 3.2065,4.12239 -1.769,8e-5 -3.2034,1.84499 -3.2065,4.12238 z m 6.2043,4.84586 c 10e-5,2.99113 1.8828,5.4161 4.2052,5.41626 -2.3225,1.6e-4 -4.2053,2.42506 -4.2052,5.41627 10e-5,-2.99137 -1.8825,-5.41635 -4.2052,-5.41627 2.3226,8e-5 4.2051,-2.42497 4.2052,-5.41626 z m -6.2043,11.50647 c 0.5482,0.56374 1.2431,0.90082 1.9991,0.90088 -0.756,4e-5 -1.4509,0.33712 -1.9991,0.90088 z m 5.5608,1.62394 c 10e-5,2.99114 1.8829,5.41611 4.2052,5.41627 -2.3224,1.6e-4 -4.2053,2.42506 -4.2052,5.41627 10e-5,-2.99137 -1.8825,-5.41635 -4.2052,-5.41627 2.3226,8e-5 4.2051,-2.42497 4.2052,-5.41627 z m -5.5608,12.02087 c 0.4117,0.24778 0.8711,0.38645 1.3556,0.3865 -0.4845,10e-6 -0.9439,0.1383 -1.3556,0.38609 z" /></g></svg>
