<?xml version="1.0" encoding="UTF-8" standalone="no"?>
<!-- Created with Inkscape (http://www.inkscape.org/) -->

<svg
   width="88.900101mm"
   height="27.966516mm"
   viewBox="0 0 88.900102 27.966517"
   id="SVGRoot"
   version="1.1"
   xml:space="preserve"
   xmlns="http://www.w3.org/2000/svg"
   xmlns:svg="http://www.w3.org/2000/svg"><defs
     id="defs1" /><g
     id="layer1"
     transform="translate(151.45605,-12.706848)"><path
       id="text16"
       style="font-style:normal;font-variant:normal;font-weight:300;font-stretch:normal;font-size:2.66516px;font-family:'GE Dinar One';-inkscape-font-specification:'GE Dinar One Light';white-space:pre;inline-size:26.468;display:inline;fill:#388dcb;fill-opacity:1;stroke-width:1.2482"
       d="m -114.26638,12.706967 c -0.11234,0 -0.22679,0.03061 -0.34417,0.09043 -0.33467,0.206863 -0.50229,0.459016 -0.50229,0.758093 v 0.05271 c 0,0.07228 0.008,0.126946 0.0258,0.164331 0.0999,0.274157 0.28362,0.411862 0.55087,0.411862 h 0.0527 c 0.26474,0 0.49566,-0.141082 0.69298,-0.422714 h 0.015 v 0.01085 c 0.10007,0.274157 0.28363,0.411345 0.55087,0.411345 h 0.0517 c 0.0725,0 0.159,-0.01779 0.2589,-0.05271 0.38461,-0.201878 0.57722,-0.465706 0.57722,-0.7922 v -0.05219 c 0,-0.07229 -0.009,-0.128075 -0.0264,-0.167949 -0.10007,-0.274154 -0.28361,-0.411861 -0.55087,-0.411861 h -0.0408 c -0.26475,0 -0.50403,0.142735 -0.71881,0.426848 v -0.01499 c -0.0999,-0.274155 -0.28364,-0.411861 -0.55088,-0.411861 z m -23.09213,0.09767 c -0.24974,0 -0.53504,0.03511 -0.85473,0.104903 -0.38962,0.159503 -0.58446,0.323515 -0.58446,0.492993 v 5.503023 c -0.0774,0.189415 -0.17683,0.284738 -0.29921,0.284738 h -0.37517 v -4.980058 c 0,-0.02242 -0.0499,-0.038 -0.14986,-0.04548 -0.24974,0 -0.53403,0.03511 -0.8537,0.104904 -0.38964,0.159503 -0.58446,0.324029 -0.58446,0.49351 v 4.42712 h -0.22479 c -0.025,0 -0.07,-0.01062 -0.13487,-0.03049 -0.14986,-0.104686 -0.22531,-0.293768 -0.22531,-0.567924 v -0.224275 c -0.17485,-0.348928 -0.559,-0.523483 -1.15342,-0.523483 h -0.11937 c -0.0174,0 -0.0281,0.0095 -0.0305,0.02946 v 0.583427 c 0,0.204372 0.0198,0.433595 0.0599,0.687813 0.13993,0.737728 0.42964,1.106393 0.8692,1.106393 h 3.23701 c 0.6169,0 1.00657,-0.09931 1.16892,-0.29869 0.0701,0.259202 0.16484,0.388607 0.28474,0.388607 h 0.82682 c 0.004,0.003 0.003,0.01137 0.0119,0.01137 h 2.06809 c 0.008,0 0.005,-0.0086 0.0124,-0.01137 h 1.34462 c 0.10007,0 0.19981,-0.01956 0.29972,-0.05943 0.42956,-0.191908 0.64389,-0.691011 0.64389,-1.496033 0,-0.21434 -0.0596,-0.547887 -0.17931,-1.001489 -0.52949,0.06979 -0.96412,0.104386 -1.3038,0.104386 -0.6993,0 -1.04903,-0.378694 -1.04903,-1.136365 v -0.209289 c 0,-0.737731 0.35968,-1.106393 1.079,-1.106393 h 0.0594 v 1.195793 c 0,0.01994 0.009,0.02997 0.03,0.02997 h 1.36374 c 0.0198,0 0.03,-0.01014 0.03,-0.02997 V 14.52391 c -0.46952,-0.169476 -0.96362,-0.254248 -1.48311,-0.254248 h -0.19482 c -0.32719,0 -0.65742,0.05016 -0.9896,0.149861 -0.9191,0.311541 -1.37821,1.058902 -1.37821,2.242757 0,0.652992 0.13938,1.176662 0.41909,1.570447 0.46206,0.538347 1.06207,0.807703 1.79886,0.807703 h 0.3297 c 0.22228,0 0.45156,-0.02457 0.68884,-0.07441 v 0.01395 c -0.19981,0.219327 -0.57898,0.330213 -1.13843,0.330213 h -0.37827 c -0.001,-6.34e-4 -0.001,-0.0044 -0.004,-0.0047 h -1.50223 c -0.004,-0.0028 -0.003,-0.0102 -0.0119,-0.01085 h -1.12397 c -0.1,-0.01744 -0.14986,-0.366559 -0.14986,-1.046965 v -5.39812 c 0,-0.02242 -0.0498,-0.03694 -0.14986,-0.04444 z m 55.134615,0 c -0.249755,0 -0.535044,0.03511 -0.854728,0.104903 -0.389622,0.159503 -0.583944,0.323515 -0.583944,0.492993 v 5.503023 c 0,0.02242 -0.01947,0.06758 -0.05943,0.134876 h -1.693954 c -0.03995,0 -0.05943,-0.0049 -0.05943,-0.01499 -0.154854,0 -0.249772,-0.209155 -0.284737,-0.627869 V 18.1733 c 0,-0.02492 -0.01014,-0.07007 -0.02997,-0.134875 -0.194808,-0.348926 -0.580013,-0.522966 -1.154452,-0.522966 h -0.0894 c -0.01747,0 -0.02749,0.0089 -0.02997,0.02894 v 0.658358 c 0,0.127111 0.0049,0.272081 0.01499,0.434082 0.114881,1.076687 0.414125,1.614372 0.898653,1.614372 h 2.50269 c 0.616896,0 1.007098,-0.09931 1.169437,-0.29869 0.06994,0.259202 0.164336,0.388607 0.284221,0.388607 h 1.393713 c 0.01265,0 0.01448,-0.01055 0.01912,-0.0186 h 1.014409 c 0.08992,0 0.205334,-0.01498 0.345198,-0.04496 0.589425,-0.186925 0.883667,-0.700563 0.883667,-1.540475 v -2.541447 c 0,-0.02242 -0.04995,-0.038 -0.149861,-0.04547 -0.759257,0 -1.25334,0.170055 -1.483114,0.509013 -0.01017,0.682898 -0.01499,1.190999 -0.01499,1.524971 v 0.344165 c 0,0.508433 -0.175373,0.762228 -0.525033,0.762228 h -0.508496 c -0.0024,0 -0.0021,0.0036 -0.0041,0.0041 h -0.700732 C -82.024028,19.277213 -82.074,18.928095 -82.074,18.247688 v -5.398636 c 0,-0.02242 -0.04995,-0.03694 -0.149862,-0.04444 z m -43.629895,0.08992 c -0.24974,0 -0.53452,0.0346 -0.85421,0.104386 -0.38961,0.159504 -0.58446,0.323516 -0.58446,0.492993 v 5.503024 c -0.0774,0.189417 -0.17733,0.284737 -0.29972,0.284737 h -0.37466 v -4.980058 c 0,-0.02242 -0.0499,-0.03695 -0.14986,-0.04444 -0.24974,0 -0.53403,0.03514 -0.8537,0.104903 -0.38964,0.159503 -0.58446,0.323515 -0.58446,0.492994 v 4.426603 h -0.2253 c -0.025,0 -0.0694,-0.01014 -0.13436,-0.02997 -0.14986,-0.104675 -0.22531,-0.294286 -0.22531,-0.56844 v -0.224276 c -0.17482,-0.348927 -0.559,-0.522966 -1.15342,-0.522966 h -0.12041 c -0.0174,0 -0.0268,0.01014 -0.0294,0.02997 v 0.582393 c 0,0.20437 0.0193,0.433597 0.0594,0.687813 0.13993,0.73773 0.43015,1.10691 0.86971,1.10691 h 3.17603 c 0.46455,0 0.7793,-0.03511 0.94413,-0.104903 0.26973,-0.137066 0.46008,-0.351252 0.56999,-0.642855 l 0.11989,-0.374138 V 12.939 c 0,-0.02242 -0.0498,-0.03695 -0.14986,-0.04444 z m 19.25619,0 c -0.0899,0.0074 -0.13436,0.02199 -0.13436,0.04444 v 6.280237 c 0.0198,0.02492 0.0339,0.0751 0.0439,0.149862 0.0824,0.338957 0.21783,0.583233 0.40514,0.732772 0.11491,0.159502 0.4846,0.239262 1.10898,0.239262 h 0.49402 c 0.004,0.003 0.003,0.01137 0.0119,0.01137 h 2.06809 c 0.008,0 0.005,-0.0086 0.0124,-0.01137 h 1.3441 c 0.0999,0 0.19983,-0.01956 0.29973,-0.05943 0.42957,-0.191905 0.6444,-0.691014 0.6444,-1.496033 0,-0.214342 -0.06,-0.547885 -0.17983,-1.001489 -0.52946,0.06979 -0.96363,0.104386 -1.30328,0.104386 -0.69933,0 -1.04955,-0.378693 -1.04955,-1.136365 V 16.54291 c 0,-0.737729 0.3592,-1.106393 1.07849,-1.106393 h 0.0605 v 1.195793 c 0,0.01994 0.009,0.02997 0.03,0.02997 h 1.36374 c 0.0198,0 0.03,-0.01014 0.03,-0.02997 v -2.108398 c -0.46953,-0.169478 -0.96468,-0.254248 -1.48415,-0.254248 h -0.19379 c -0.32718,0 -0.65742,0.05016 -0.9896,0.149861 -0.91912,0.31154 -1.37821,1.058902 -1.37821,2.242757 0,0.65299 0.13938,1.17666 0.41909,1.570447 0.46205,0.538345 1.06208,0.807703 1.79886,0.807703 h 0.32866 c 0.22229,0 0.45262,-0.02457 0.68988,-0.07441 v 0.01395 c -0.19981,0.219326 -0.5795,0.330213 -1.13895,0.330213 h -0.37775 c -0.001,-6.32e-4 -0.001,-0.0044 -0.004,-0.0047 h -1.45365 c -0.004,-0.0028 -0.003,-0.01003 -0.0119,-0.01085 h -0.89969 c -0.11747,0 -0.2173,-0.105356 -0.29972,-0.31471 V 13.46295 l -0.015,-0.07545 c -0.20978,-0.328984 -0.64892,-0.492993 -1.31827,-0.492993 z m 13.932482,0 c -0.312194,0 -0.606432,0.04513 -0.883667,0.134875 -0.309693,0.152037 -0.464571,0.295968 -0.464571,0.433049 v 5.517492 c -0.08237,0.209355 -0.18234,0.31471 -0.299723,0.31471 h -0.190686 c 0,-0.01744 -0.0094,-0.02748 -0.03049,-0.02997 h -1.108977 c -0.07003,-0.02992 -0.114478,-0.164326 -0.134358,-0.403593 v -0.119373 c 0.05994,-0.396279 0.0894,-0.691242 0.0894,-0.88315 0,-0.471052 -0.07042,-0.874834 -0.210323,-1.211296 -0.379633,-0.867332 -1.1485,-1.300696 -2.307353,-1.300696 h -0.329695 c -0.564457,0.02992 -0.929144,0.07505 -1.093991,0.134876 v 0.02946 c 0.04983,0.620589 0.115014,1.009836 0.194821,1.166853 0.394617,-0.07227 0.779818,-0.112416 1.154451,-0.119889 0.699315,0 1.048515,0.423847 1.048515,1.27124 0,0.867328 -0.3492,1.300696 -1.048515,1.300696 -0.362145,0 -0.807313,-0.03961 -1.334285,-0.119372 0,0.01017 -0.0041,0.01499 -0.01499,0.01499 0.03,0.466065 0.08508,0.854793 0.164848,1.166337 0.04505,0.07228 0.424656,0.121934 1.138949,0.149345 h 0.119889 c 0.82419,0 1.474175,-0.238743 1.948718,-0.717269 0.06491,0.448618 0.179859,0.672827 0.344682,0.672827 h 0.670244 v 0.01499 c 0,0.01994 0.0094,0.02946 0.03049,0.02946 h 1.27279 c 0.499514,0 0.834756,-0.09428 1.00459,-0.283704 0.06742,0.189417 0.151841,0.283704 0.254248,0.283704 h 1.393713 0.498678 c 0.591922,0 0.941119,-0.06469 1.048515,-0.194304 0.162341,-0.07974 0.312219,-0.308978 0.449585,-0.687813 0.01999,-0.137066 0.04047,-0.217348 0.06046,-0.239779 v -6.280237 c 0,-0.01994 -0.03996,-0.03446 -0.119889,-0.04444 -0.312195,0 -0.607469,0.04463 -0.884701,0.134358 -0.309697,0.152038 -0.464571,0.296485 -0.464571,0.433566 v 5.517492 c -0.08242,0.209355 -0.181819,0.31471 -0.299206,0.31471 h -0.288872 -1.123445 c -0.07243,-0.03239 -0.117392,-0.191907 -0.134876,-0.478524 v -5.877161 c 0,-0.01994 -0.0405,-0.03446 -0.120406,-0.04444 z m 14.951542,0 c -0.08992,0.0074 -0.134358,0.02199 -0.134358,0.04444 v 6.280237 c 0.01999,0.02492 0.03495,0.0751 0.04496,0.149862 0.08242,0.338957 0.216793,0.583233 0.40411,0.732772 0.114882,0.159502 0.484584,0.239262 1.108976,0.239262 h 1.108976 c 0.01491,0 0.01898,-0.01064 0.02274,-0.0217 h 0.53175 c 0.142367,0 0.247274,-0.170061 0.31471,-0.509013 h 0.01499 c 0.382129,0.378831 0.896189,0.56844 1.543058,0.56844 h 0.135909 c 0.636877,0 1.13096,-0.189609 1.483114,-0.56844 h 0.01499 c 0.08491,0.348922 0.194827,0.522965 0.329696,0.522965 h 0.674377 c 0.0037,0.0012 0.0028,0.0078 0.0078,0.0078 h 1.617989 c 0.561952,0 0.941641,-0.293925 1.138948,-0.882117 h 0.01499 c 0.252253,0.588192 0.646416,0.882117 1.18339,0.882117 h 0.09043 c 0.502011,0 0.856721,-0.233724 1.064017,-0.702283 h 0.02997 c 0.249757,0.468559 0.614461,0.702283 1.09399,0.702283 h 0.0894 c 0.08992,0 0.204822,-0.01453 0.344682,-0.04444 0.589426,-0.186926 0.884183,-0.701073 0.884183,-1.540991 v -2.541447 c 0,-0.02242 -0.04995,-0.03694 -0.149861,-0.04444 -0.429579,0.01994 -0.694364,0.04951 -0.794267,0.0894 -0.469542,0.134598 -0.703833,0.308626 -0.703833,0.522966 v 1.689819 c 0,0.428684 -0.104904,0.642855 -0.314709,0.642855 h -0.01499 c -0.134868,0 -0.234785,-0.09428 -0.299723,-0.283704 v -2.601908 c 0,-0.01744 -0.01014,-0.028 -0.02997,-0.03049 H -64.9681 c -0.726791,0 -1.231896,0.124906 -1.51412,0.374137 v 1.899109 c 0,0.428683 -0.104903,0.642855 -0.314709,0.642855 -0.07243,0 -0.146853,-0.0346 -0.224276,-0.104386 -0.159844,-0.269173 -0.240295,-0.51293 -0.240295,-0.732256 v -2.079459 c 0,-0.01744 -0.0094,-0.02647 -0.02946,-0.02894 h -0.05994 c -0.679338,0 -1.16945,0.113832 -1.469161,0.343132 l -0.04393,2.392618 c -0.119883,0.269173 -0.265796,0.40411 -0.435632,0.40411 h -0.07338 c -0.0036,-0.01082 -0.0083,-0.0203 -0.02377,-0.02222 h -1.123962 c -0.08992,-0.09721 -0.134876,-0.237669 -0.134876,-0.419612 0.02997,-0.246741 0.05046,-0.470951 0.06046,-0.672828 0,-0.341449 -0.05495,-0.679493 -0.164848,-1.015958 -0.314694,-0.777607 -0.934187,-1.166854 -1.858284,-1.166854 h -0.135393 c -0.347161,0 -0.656909,0.05466 -0.929142,0.164331 -0.74927,0.309046 -1.122929,0.977692 -1.122929,2.004529 v 0.05943 c 0,0.109666 0.01453,0.318306 0.04444,0.627352 -0.01506,0.244249 -0.05994,0.384717 -0.134876,0.419612 h -1.108976 c -0.0044,0 -0.0044,0.0064 -0.0078,0.0078 h -0.06666 c -0.117382,0 -0.217304,-0.105356 -0.299723,-0.31471 v -5.517492 l -0.01499,-0.07545 c -0.209796,-0.328984 -0.64995,-0.492993 -1.3193,-0.492993 z m -46.941324,0.119372 c -0.0899,0.0075 -0.13487,0.02199 -0.13487,0.04444 v 6.759277 l 0.015,0.07493 c 0.20978,0.328988 0.64946,0.49351 1.31879,0.49351 0.0899,-0.0074 0.13487,-0.02253 0.13487,-0.04496 v -6.758761 l -0.015,-0.07545 c -0.20981,-0.328986 -0.64943,-0.492993 -1.31879,-0.492993 z m 12.45661,1.150834 c -0.10975,0.0074 -0.16485,0.02305 -0.16485,0.04548 v 0.374137 h -2.27738 c -0.0673,0 -0.17786,0.02456 -0.33021,0.07441 -0.44957,0.234281 -0.67438,0.752413 -0.67438,1.554944 v 2.931087 c 0,0.01994 0.009,0.03049 0.03,0.03049 h 3.252 c 0,0.02492 0.009,0.05952 0.03,0.104387 0.0349,0.294093 0.17933,0.56345 0.43408,0.807702 0.12486,0.169476 0.52507,0.253732 1.19941,0.253732 h 1.21388 c 0.0135,0 0.0149,-0.01055 0.0191,-0.0186 h 0.81597 c 0.0899,0 0.20535,-0.01498 0.3452,-0.04496 0.58945,-0.186924 0.88367,-0.700561 0.88367,-1.540475 V 16.19565 c 0,-0.02244 -0.0498,-0.03797 -0.14986,-0.04547 -0.75926,0 -1.25335,0.170055 -1.48312,0.509013 -0.009,0.682899 -0.015,1.190999 -0.015,1.524971 v 0.343649 c 0,0.508433 -0.17536,0.762744 -0.52503,0.762744 h -0.50953 c -0.003,0 -0.001,0.0036 -0.004,0.0041 h -0.33641 c -0.13734,0 -0.24727,-0.100341 -0.3297,-0.299723 v -4.157369 c -0.17482,-0.448619 -0.64944,-0.672828 -1.42368,-0.672828 z m -7.90133,1.406116 c -0.2922,0 -0.57146,0.04013 -0.83871,0.11989 -0.96906,0.35142 -1.45366,1.029575 -1.45366,2.033984 0,0.999423 0.43915,1.702148 1.31827,2.108398 0.22979,0.06231 0.34468,0.101928 0.34468,0.119373 -0.51699,0.226805 -0.84673,0.386823 -0.98908,0.47904 -0.62938,0.231785 -0.9431,0.5553 -0.9431,0.971517 v 0.05943 c 0,0.239266 0.0745,0.508622 0.22428,0.807703 0.70933,-0.368865 1.51364,-0.777662 2.41277,-1.226282 0.76675,-0.319017 1.35073,-0.677645 1.75286,-1.07642 0.44955,-0.366372 0.67438,-0.999379 0.67438,-1.899109 0,-0.431171 -0.0648,-0.825437 -0.19482,-1.18184 -0.37214,-0.877299 -1.08153,-1.315682 -2.12803,-1.315682 z m 6.26835,0.104903 h 1.46813 v 2.197799 h -1.90324 c 0.009,-0.573236 0.015,-1.021652 0.015,-1.345654 v -0.164331 c 0,-0.458589 0.14031,-0.687814 0.42013,-0.687814 z m -37.59512,0.05943 c -0.0174,0 -0.0267,0.01014 -0.0294,0.02997 v 3.12539 c 0,0.06979 0.004,0.104387 0.015,0.104387 0,0.264188 0.1149,0.563646 0.34468,0.897619 0.26724,0.29908 0.56252,0.448552 0.8847,0.448552 h 5.40949 c 0.11233,0 0.27726,-0.04013 0.49455,-0.11989 0.49952,-0.319018 0.7493,-0.77695 0.7493,-1.37511 v -3.080948 c 0,-0.01744 -0.009,-0.02748 -0.0305,-0.02997 h -0.23927 c -0.32716,0 -0.64192,0.04514 -0.94412,0.134876 -0.30721,0.109667 -0.5065,0.264152 -0.59893,0.463537 l 0.015,0.02997 c -0.009,0.05482 -0.015,0.09997 -0.015,0.134875 v 1.614372 c 0,0.04985 -0.004,0.124578 -0.0155,0.224276 0.009,0 0.0155,0.01549 0.0155,0.04547 v 0.07441 c -0.0451,0.488497 -0.19982,0.733289 -0.46458,0.733289 h -0.31471 l -0.0305,0.01395 c 0,-0.01017 -0.004,-0.01395 -0.015,-0.01395 h -2.62206 l -0.03,0.01395 c 0,-0.01017 -0.004,-0.01395 -0.0155,-0.01395 h -0.31471 c -0.24976,0 -0.39913,-0.224723 -0.44907,-0.673344 -0.009,-1.044285 -0.0155,-1.772095 -0.0155,-2.18333 v -0.01499 c -0.23479,-0.388803 -0.74883,-0.583427 -1.54306,-0.583427 z m 4.03128,0.08268 c -0.12484,0 -0.25087,0.03237 -0.37827,0.09715 -0.36213,0.221815 -0.54312,0.495157 -0.54312,0.821656 v 0.05271 c 0,0.07976 0.008,0.141077 0.0258,0.183452 0.10986,0.296588 0.31135,0.444417 0.60358,0.444417 h 0.0517 c 0.0799,0 0.17373,-0.01844 0.28112,-0.05581 0.41961,-0.219323 0.62942,-0.506595 0.62942,-0.862997 v -0.05633 c 0,-0.07726 -0.009,-0.137476 -0.03,-0.179834 -0.10997,-0.296589 -0.30921,-0.444417 -0.59893,-0.444417 z m 27.40039,0.964282 c 0.56943,0 0.85422,0.423849 0.85422,1.27124 0,0.29659 -0.0343,0.540346 -0.10439,0.732255 -0.10738,0.336467 -0.40766,0.63039 -0.89969,0.882117 l -0.0444,-0.05943 c -0.43958,-0.391297 -0.65991,-0.899916 -0.65991,-1.525488 0,-0.867333 0.28479,-1.300696 0.85421,-1.300696 z m 47.271537,0.254248 c 0.5095,0 0.763778,0.353615 0.763778,1.061434 v 0.119889 c 0,0.179447 -0.02445,0.363519 -0.07441,0.552938 -0.127381,0.338956 -0.347195,0.509013 -0.659391,0.509013 -0.509505,0 -0.764295,-0.373679 -0.764295,-1.121379 0,-0.747697 0.244798,-1.121895 0.734322,-1.121895 z m -56.127837,3.507279 -0.17984,0.01395 c -0.3896,0.117142 -0.58394,0.386501 -0.58394,0.807703 v 0.08992 c 0,0.122126 0.0197,0.241493 0.0599,0.358634 0.13494,0.30905 0.38965,0.464054 0.7643,0.464054 h 0.14986 l 0.17983,-0.01499 v 0.01499 c -0.0973,0.04985 -0.18785,0.07441 -0.27026,0.07441 h -0.10491 c -0.13736,0 -0.31722,-0.04913 -0.5395,-0.148828 l -0.0294,0.01499 c 0,0.01017 0.004,0.01395 0.015,0.01395 0.0599,0.388804 0.10487,0.583427 0.13488,0.583427 h 0.11989 c 0.65934,0 0.98908,-0.179057 0.98908,-0.537952 v -0.04547 c 0,-0.149536 -0.0255,-0.288461 -0.0754,-0.418062 -0.13239,0.01994 -0.29226,0.03498 -0.47956,0.04496 -0.24975,0 -0.37414,-0.144456 -0.37414,-0.433565 0,-0.07973 0.004,-0.119889 0.0155,-0.119889 0,-0.229295 0.13544,-0.343649 0.40515,-0.343649 v 0.418579 c 0,0.01994 0.009,0.02997 0.03,0.02997 h 0.44959 c 0.0199,0 0.03,-0.01014 0.03,-0.02997 v -0.732771 c 0,-0.04236 -0.13546,-0.07698 -0.40515,-0.104387 z m 19.39106,0.01809 c -0.1,0 -0.1998,0.01956 -0.29972,0.05943 -0.40959,0.206863 -0.61392,0.49179 -0.61392,0.853178 v 0.134359 c 0.0949,0.358893 0.29422,0.538468 0.59893,0.538468 h 0.0904 c 0.28972,0 0.53951,-0.160024 0.7493,-0.479041 h 0.015 c 0.0949,0.269169 0.27924,0.403593 0.55397,0.403593 h 0.0605 c 0.0349,0 0.0793,-0.0044 0.13436,-0.01447 0.45957,-0.176955 0.68885,-0.451331 0.68885,-0.822689 v -0.0894 c 0,-0.03488 -0.004,-0.08005 -0.015,-0.134876 -0.10501,-0.279139 -0.29528,-0.418579 -0.56999,-0.418579 h -0.03 c -0.28473,0 -0.51901,0.139446 -0.70383,0.418579 h -0.03 c -0.10007,-0.299082 -0.28973,-0.448551 -0.56947,-0.448551 z m 28.884027,0 c -0.09989,0 -0.199819,0.01956 -0.299724,0.05943 -0.409601,0.206863 -0.613916,0.49179 -0.613916,0.853178 v 0.134359 c 0.09492,0.358893 0.295263,0.538468 0.599964,0.538468 h 0.0894 c 0.289714,0 0.539513,-0.160024 0.749308,-0.479041 h 0.01499 c 0.09492,0.269169 0.27924,0.403593 0.553971,0.403593 h 0.06046 c 0.03497,0 0.07941,-0.0044 0.134359,-0.01447 0.459549,-0.176955 0.68988,-0.451331 0.68988,-0.822689 v -0.0894 c 0,-0.03488 -0.0049,-0.08005 -0.01499,-0.134876 -0.1049,-0.279139 -0.294226,-0.418579 -0.568957,-0.418579 h -0.03049 c -0.284724,0 -0.520051,0.139446 -0.704867,0.418579 h -0.02997 c -0.09989,-0.299082 -0.289228,-0.448551 -0.568958,-0.448551 z m -42.316797,6.537069 c -0.3352,0 -0.49868,0.178567 -0.49868,0.536401 v 0.155546 H -123.61 l -0.16381,0.264583 h 1.28622 v -0.264583 h -0.61598 v -0.155546 c 0,-0.178915 0.0627,-0.271818 0.18759,-0.271818 0.0857,0 0.15575,0.03898 0.21032,0.116789 l 0.17156,-0.218075 c -0.10918,-0.1089 -0.22611,-0.163297 -0.35863,-0.163297 z m -19.59777,1.25212 -0.74052,0.233577 v 3.780648 c 0,0.598974 0.36679,1.003556 1.02939,1.003556 h 0.82631 5.40173 3.99149 l -0.55294,-0.653707 h -2.00401 v -1.454691 c 0,-0.443397 0.28056,-0.777731 0.74828,-0.777731 0.23386,0 0.44492,0.109269 0.632,0.334864 l 0.55345,-0.498161 c -0.31182,-0.303378 -0.67824,-0.45837 -1.09915,-0.45837 -0.49111,0 -0.88106,0.146748 -1.16169,0.44235 -0.27282,0.28782 -0.41341,0.653747 -0.41341,1.081588 v 1.330151 h -0.69402 -0.80253 v -0.334346 c 0,-0.630093 -0.0306,-1.073422 -0.0853,-1.337903 -0.0702,-0.35783 -0.22657,-0.637981 -0.46043,-0.84801 -0.35859,-0.326717 -0.82616,-0.489893 -1.40302,-0.489893 -0.58464,0 -1.05216,0.225293 -1.41852,0.668693 -0.3586,0.443399 -0.5385,0.98009 -0.53071,1.625741 0.008,0.303378 0.0624,0.536803 0.14831,0.715718 h -0.84956 -0.73226 c -0.25726,0 -0.3824,-0.1247 -0.3824,-0.37362 z m 11.91969,0 -0.74104,0.233577 v 4.784204 h 0.74104 z m 5.55004,0 c -0.21048,0 -0.3979,0.18679 -0.3979,0.412378 0,0.217811 0.18742,0.404109 0.3979,0.404109 0.21826,0 0.40515,-0.186298 0.40515,-0.404109 0,-0.225588 -0.18689,-0.412378 -0.40515,-0.412378 z m 2.2841,0 -0.74104,0.233577 v 3.780648 c 0,0.598974 0.36733,1.003556 1.02991,1.003556 h 0.82579 0.40515 c 0.44433,0 0.80311,-0.132932 1.06815,-0.38964 0.26506,-0.256704 0.39739,-0.59081 0.39739,-0.987537 v -2.130619 l -0.73225,0.217558 v 1.858801 c 0,0.528966 -0.25705,0.793233 -0.77153,0.793233 h -0.36691 v -0.0155 h -0.73329 c -0.25724,0 -0.38137,-0.1247 -0.38137,-0.37362 z m 14.6234,0 -0.74001,0.233577 v 3.780648 c 0,0.598974 0.36628,1.003556 1.02888,1.003556 h 0.82631 0.36638 c 0.47552,0 0.84137,-0.139605 1.1064,-0.411861 0.26503,0.272264 0.62423,0.411861 1.08417,0.411861 h 0.46767 6.415628 0.311092 c 0.444332,0 0.803117,-0.132932 1.068152,-0.38964 0.265053,-0.264483 0.397391,-0.59081 0.397391,-0.987537 v -3.624585 l -0.740006,0.217558 v 3.336747 c 0,0.528969 -0.2571,0.79375 -0.763778,0.79375 h -0.272851 -0.764295 c 0.03125,-0.863462 -0.08582,-1.501266 -0.350883,-1.921329 -0.374176,-0.614536 -0.942972,-0.917852 -1.69912,-0.894519 -0.91205,0.02335 -1.62191,0.43533 -2.1208,1.25212 V 28.49154 l -0.74001,0.225309 v 3.998205 h -0.95911 v 0.0155 h -0.20257 c -0.51448,0 -0.77153,-0.256571 -0.77153,-0.769979 v -2.099613 l -0.73329,0.217558 v 1.858801 c 0,0.528965 -0.257,0.793233 -0.77928,0.793233 h -0.31936 v -0.0155 h -0.73277 c -0.25725,0 -0.38241,-0.124701 -0.38241,-0.37362 z m 13.743347,0 -0.74104,0.233577 v 4.784204 h 0.74104 z m 8.980847,0 -0.74104,0.233577 v 3.780648 c 0,0.598974 0.36628,1.003556 1.028878,1.003556 h 0.825789 0.15658 c 0.514489,0 0.896217,-0.139605 1.145666,-0.411861 0.272834,0.272264 0.631013,0.411861 1.083138,0.411861 0.530079,0 0.928212,-0.179113 1.185457,-0.529166 0.210471,-0.287821 0.319361,-0.669112 0.319361,-1.135848 0,-0.474516 -0.108897,-0.855237 -0.319361,-1.150835 -0.257245,-0.350054 -0.655378,-0.521415 -1.185457,-0.521415 -0.537874,0 -0.935451,0.171361 -1.192692,0.521415 -0.210475,0.295598 -0.31936,0.676319 -0.31936,1.150835 v 0.249597 c 0,0.52119 -0.257085,0.777213 -0.763778,0.777213 h -0.109554 v -0.0155 h -0.732255 c -0.257243,0 -0.381372,-0.1247 -0.381372,-0.37362 z m -31.189314,0.0155 c -0.21829,0 -0.40566,0.179064 -0.40566,0.396875 0,0.217811 0.18737,0.404109 0.40566,0.404109 0.22603,0 0.4129,-0.186298 0.4129,-0.404109 0,-0.217811 -0.18687,-0.396875 -0.4129,-0.396875 z m 1.05214,0 c -0.21826,0 -0.3974,0.179064 -0.3974,0.396875 0,0.217811 0.17914,0.404109 0.3974,0.404109 0.21827,0 0.40514,-0.186298 0.40514,-0.404109 0,-0.217811 -0.18687,-0.396875 -0.40514,-0.396875 z m 41.98503,0 c -0.226062,0 -0.412378,0.179064 -0.412378,0.396875 0,0.217811 0.186316,0.404109 0.412378,0.404109 0.21827,0 0.397908,-0.186298 0.397908,-0.404109 0,-0.217811 -0.179638,-0.396875 -0.397908,-0.396875 z m -16.59537,1.182873 c -0.218268,0 -0.397392,0.186299 -0.397392,0.40411 0,0.225588 0.179124,0.404626 0.397392,0.404626 0.218267,0 0.405143,-0.179038 0.405143,-0.404626 0,-0.217811 -0.186876,-0.40411 -0.405143,-0.40411 z m 1.044381,0 c -0.210474,0 -0.397392,0.186299 -0.397392,0.40411 0,0.225588 0.186918,0.404626 0.397392,0.404626 0.218266,0 0.405143,-0.179038 0.405143,-0.404626 0,-0.217811 -0.186877,-0.40411 -0.405143,-0.40411 z m -25.654761,0.311092 -1.58182,5.17e-4 c -0.99,0 -1.48931,0.575226 -1.48931,1.72651 0,1.190174 0.49931,1.780769 1.48931,1.780769 0.58465,0 0.96638,-0.178025 1.14567,-0.543636 0.1637,0.365611 0.55364,0.543636 1.16168,0.543636 h 0.50643 3.99149 l -0.55397,-0.653706 h -2.00298 V 31.26036 c 0,-0.443397 0.28055,-0.777731 0.74827,-0.777731 0.23384,0 0.44389,0.109268 0.63097,0.334864 l 0.55346,-0.498161 c -0.3118,-0.30338 -0.67823,-0.45837 -1.09916,-0.45837 -0.49111,0 -0.88105,0.146746 -1.16169,0.44235 -0.27284,0.28782 -0.41237,0.653748 -0.41237,1.081588 v 1.329635 h -0.86558 v 0.01602 h -0.29611 c -0.5067,0 -0.76429,-0.264267 -0.76429,-0.793233 z m -9.40098,5.17e-4 -0.73226,0.217558 v 1.858801 c 0,0.528964 -0.25701,0.793233 -0.77152,0.793233 h -0.37414 -0.8506 c 0.008,-0.388947 0.016,-0.707633 0.016,-0.948779 0,-1.213513 -0.49878,-1.820561 -1.48879,-1.820561 -0.53006,0 -0.93587,0.19451 -1.20872,0.575676 -0.22606,0.318937 -0.34209,0.731475 -0.34209,1.244885 0,0.466734 0.13236,0.840301 0.39739,1.120345 0.28064,0.303377 0.68539,0.458344 1.20768,0.466121 h 0.60874 c -0.0623,0.458957 -0.42152,0.840234 -0.9126,0.848011 -0.38199,0.01554 -0.78717,-0.07735 -1.2237,-0.271818 l 0.32763,0.715718 c 0.21048,0.132246 0.51452,0.202572 0.91209,0.202572 0.45992,0 0.83393,-0.147751 1.13016,-0.451135 0.27282,-0.272264 0.43681,-0.615504 0.50695,-1.043348 h 0.91984 0.41289 c 0.44434,0 0.80261,-0.132416 1.06764,-0.389123 0.26505,-0.256705 0.39791,-0.590811 0.39791,-0.987537 z m 37.347591,0 -0.725021,0.193787 v 1.898592 c 0,0.505628 -0.257515,0.761194 -0.779797,0.761194 h -2.626713 c -0.514486,0 -0.772563,-0.255566 -0.772563,-0.761194 v -1.454692 l -0.732255,0.746208 v 0.785998 c 0,0.801232 0.561127,1.337386 1.403015,1.337386 h 2.76779 c 0.912048,0 1.465544,-0.520596 1.465544,-1.337386 z m 13.251904,0 c -0.631418,0 -1.200609,0.255565 -1.722892,0.761194 l 0.5302,0.490409 c 0.366376,-0.396724 0.76395,-0.59893 1.192692,-0.59893 0.50669,0 0.84963,0.218087 1.021126,0.653707 0.109125,0.264481 0.163814,0.691927 0.163814,1.283126 v 0.280086 h -3.196187 v -0.0155 h -1.0604 v -1.516703 c 0,-0.404504 -0.140506,-0.723134 -0.428915,-0.964282 -0.288426,-0.241149 -0.65474,-0.365869 -1.11466,-0.365869 -0.350787,0 -0.701347,0.155514 -1.052133,0.458886 v 0.840259 c 0.257244,-0.451177 0.607803,-0.676961 1.052133,-0.676961 0.537873,0 0.810803,0.256596 0.810803,0.762227 v 1.477946 h -1.917196 l -0.444417,0.638204 h 4.154785 3.952214 v -0.91829 c 0,-0.754555 -0.101183,-1.337531 -0.303858,-1.734261 -0.304015,-0.567859 -0.849788,-0.855245 -1.637109,-0.855245 z m -65.176385,0.497127 c 0.57686,-0.0078 0.94327,0.210254 1.09916,0.66921 0.0857,0.225591 0.12454,0.676637 0.12454,1.353406 v 0.33383 h -0.92708 c 0.1637,-0.116675 0.24082,-0.365042 0.24082,-0.746208 0,-0.388948 -0.0934,-0.715274 -0.28061,-0.987537 -0.22607,-0.334495 -0.53776,-0.498161 -0.93534,-0.498161 0.1715,-0.08556 0.3979,-0.12454 0.67851,-0.12454 z m 22.44256,0.101286 h 5.2e-4 0.79478 v 1.128097 c 0,0.381166 -0.0553,0.660852 -0.15658,0.83199 -0.11687,0.210031 -0.33419,0.311092 -0.6382,0.311092 -0.30402,0 -0.52283,-0.101065 -0.63976,-0.311092 -0.10142,-0.171138 -0.15554,-0.450824 -0.15554,-0.83199 0,-0.381167 0.0543,-0.660882 0.15554,-0.824239 0.11681,-0.202123 0.33552,-0.303728 0.63924,-0.303858 z m 15.94114,0.108521 c 0.444332,0.02335 0.780038,0.202477 1.013897,0.521415 0.202686,0.365608 0.303857,0.78582 0.303857,1.275891 0,0.116673 -0.0085,0.233164 -0.03101,0.349849 h -3.469554 c 0.10918,-0.49785 0.35132,-0.96432 0.73329,-1.392163 0.44432,-0.521189 0.92725,-0.778327 1.44952,-0.754992 z m -28.00914,0.03927 h 5.2e-4 c 0.31961,0 0.53784,0.131893 0.64699,0.388606 0.0702,0.163356 0.10128,0.420388 0.10128,0.785999 l -0.008,0.948779 h -0.68626 c -0.57685,0 -0.86558,-0.318688 -0.86558,-0.948779 0,-0.785676 0.27292,-1.174605 0.8108,-1.174605 z m 46.460215,0.05426 c 0.50669,0 0.764295,0.34999 0.764295,1.042314 0,0.692323 -0.257605,1.034562 -0.764295,1.034562 -0.514491,0 -0.771529,-0.342239 -0.771529,-1.034562 0,-0.692324 0.257038,-1.042314 0.771529,-1.042314 z m -57.544295,0.420646 c 0.17149,0 0.31203,0.09291 0.42117,0.271818 0.10919,0.178916 0.16381,0.38109 0.16381,0.606681 0,0.427843 -0.20303,0.75396 -0.58498,0.75396 -0.382,0 -0.57671,-0.326117 -0.57671,-0.75396 0,-0.225591 0.0542,-0.427765 0.15555,-0.606681 0.10919,-0.178917 0.24964,-0.271818 0.42116,-0.271818 z m 18.81023,2.97863 c -0.21049,0 -0.39791,0.179068 -0.39791,0.396875 0,0.217811 0.18742,0.404626 0.39791,0.404626 0.21825,0 0.40514,-0.186815 0.40514,-0.404626 0,-0.217807 -0.18689,-0.396875 -0.40514,-0.396875 z m 15.13809,0.0083 c -0.21824,0 -0.40514,0.186847 -0.40514,0.396875 0,0.217809 0.1869,0.40411 0.40514,0.40411 0.2183,0 0.39791,-0.186301 0.39791,-0.40411 0,-0.210028 -0.17961,-0.396875 -0.39791,-0.396875 z m -33.91266,2.354895 -0.4222,0.133842 v 2.159558 c 0,0.34223 0.20874,0.573608 0.58653,0.573608 h 0.47129 0.23099 c 0.25334,0 0.45764,-0.07554 0.60875,-0.222208 0.15112,-0.14667 0.22686,-0.337635 0.22686,-0.564307 v -1.218013 l -0.41754,0.12454 v 1.06195 c 0,0.30223 -0.14695,0.45372 -0.44029,0.45372 h -0.20877 v -0.0093 h -0.41806 c -0.14667,0 -0.21756,-0.07068 -0.21756,-0.212907 z m 2.50682,0 -0.42219,0.133842 v 2.159558 c 0,0.34223 0.20874,0.573608 0.58653,0.573608 h 0.47128 2.61328 c 0.51112,0 0.83561,-0.306505 0.83561,-0.764294 v -1.249019 l -0.4222,0.128674 v 1.075903 c 0,0.288896 -0.14673,0.435116 -0.43563,0.435116 h -0.4532 v -1.439706 l -0.4222,0.124541 v 1.324467 h -0.87126 v -1.253671 l -0.4222,0.120406 v 1.123963 h -0.4222 -0.41806 c -0.14667,0 -0.21756,-0.07068 -0.21756,-0.212907 z m 4.90203,0 -0.4222,0.133842 v 2.159558 c 0,0.34223 0.20926,0.573608 0.58705,0.573608 h 0.47077 0.20929 c 0.27112,0 0.47985,-0.08009 0.63097,-0.235644 0.15111,0.155559 0.3553,0.235644 0.61753,0.235644 h 0.26665 0.0935 c 0.29334,0 0.51096,-0.08009 0.65319,-0.235644 0.15556,0.155559 0.36026,0.235644 0.61805,0.235644 0.30223,0 0.52874,-0.102302 0.67541,-0.302307 0.12,-0.164448 0.18242,-0.382383 0.18242,-0.649056 0,-0.271117 -0.0624,-0.488948 -0.18242,-0.657841 -0.14667,-0.200004 -0.37318,-0.297656 -0.67541,-0.297656 -0.30668,0 -0.53339,0.09765 -0.68006,0.297656 -0.12001,0.168893 -0.18242,0.386724 -0.18242,0.657841 v 0.142627 c 0,0.297785 -0.14674,0.444418 -0.43563,0.444418 h -0.0667 -0.23978 c -0.29334,0 -0.43976,-0.146943 -0.43976,-0.440284 v -1.199926 l -0.41806,0.12454 v 1.06195 c 0,0.30223 -0.14664,0.45372 -0.44442,0.45372 h -0.18242 v -0.0093 h -0.41754 c -0.14667,0 -0.21808,-0.07068 -0.21808,-0.212907 z m 6.79132,0 c -0.12445,0 -0.231,0.106752 -0.231,0.235644 0,0.124448 0.10655,0.231511 0.231,0.231511 0.12444,0 0.22686,-0.107063 0.22686,-0.231511 0,-0.128892 -0.10242,-0.235644 -0.22686,-0.235644 z m 25.671816,0 -0.422197,0.133842 v 2.159558 c 0,0.34223 0.208741,0.573608 0.586528,0.573608 h 0.471289 1.155485 c 0.266673,0 0.462597,-0.04464 0.587044,-0.137976 0.155559,-0.111113 0.235128,-0.297427 0.235128,-0.559655 v -0.680062 c 0,-0.195561 -0.07099,-0.355833 -0.208773,-0.484725 -0.155559,-0.151115 -0.386411,-0.226343 -0.684196,-0.226343 -0.533346,0 -0.86248,0.279946 -0.86248,0.711068 0,0.240005 0.04878,0.413195 0.142111,0.519865 0.111113,0.128892 0.306727,0.191202 0.591178,0.191202 h 0.599963 c 0,0.137781 -0.04877,0.22665 -0.14211,0.266651 -0.04889,0.01778 -0.155533,0.02636 -0.311092,0.02636 h -1.102258 -0.417546 c -0.14667,0 -0.218074,-0.07068 -0.218074,-0.212907 z m 3.413745,0 -0.422197,0.133842 v 2.159558 c 0,0.34223 0.208741,0.573608 0.586528,0.573608 h 0.470772 0.23151 c 0.25334,0 0.457634,-0.07554 0.608749,-0.222208 0.151115,-0.14667 0.226859,-0.337635 0.226859,-0.564307 v -1.218013 l -0.418062,0.12454 v 1.06195 c 0,0.30223 -0.146426,0.45372 -0.439766,0.45372 h -0.20929 v -0.0093 h -0.417546 c -0.14667,0 -0.217557,-0.07068 -0.217557,-0.212907 z m 5.337658,0 -0.422196,0.133842 v 2.159558 c 0,0.34223 0.208741,0.573608 0.586527,0.573608 h 0.471289 0.230994 c 0.253339,0 0.458151,-0.07554 0.609265,-0.222208 0.151115,-0.14667 0.226343,-0.337635 0.226343,-0.564307 v -1.218013 l -0.417546,0.12454 v 1.06195 c 0,0.30223 -0.146942,0.45372 -0.440283,0.45372 h -0.208773 v -0.0093 h -0.417545 c -0.14667,0 -0.218075,-0.07068 -0.218075,-0.212907 z m 2.506824,0 -0.422196,0.133842 v 2.733166 h 0.422196 z m 8.426876,0 c -0.124448,0 -0.230994,0.106752 -0.230994,0.235644 0,0.124448 0.106546,0.231511 0.230994,0.231511 0.124447,0 0.226859,-0.107063 0.226859,-0.231511 0,-0.128892 -0.102412,-0.235644 -0.226859,-0.235644 z m 4.035412,0 -0.422196,0.133842 v 1.906343 c 0,0.30223 -0.146426,0.453203 -0.439766,0.453203 h -0.333313 v 0.0093 H -77.1348 c -0.29334,0 -0.440283,-0.146943 -0.440283,-0.440284 v -1.199926 l -0.417545,0.12454 v 1.06195 c 0,0.30223 -0.146633,0.45372 -0.444418,0.45372 h -0.187068 -0.63097 c 0.182227,-0.200005 0.275642,-0.413704 0.280087,-0.631486 0.0089,-0.280007 -0.04887,-0.511065 -0.177767,-0.688847 -0.151115,-0.213339 -0.382069,-0.319877 -0.697632,-0.319877 -0.306674,0 -0.537732,0.106538 -0.688847,0.319877 -0.128892,0.177782 -0.186656,0.40884 -0.177767,0.688847 0.0044,0.217782 0.09734,0.426624 0.27957,0.622184 h -0.888835 c -0.29334,0 -0.439766,-0.14622 -0.439766,-0.435116 v -0.831474 l -0.418063,0.426848 v 0.449068 c 0,0.457789 0.31994,0.764294 0.799951,0.764294 h 1.280026 c 0.08445,0 0.173625,-0.0091 0.262516,-0.02687 0.08445,0.01778 0.168768,0.02687 0.253214,0.02687 h 0.964283 0.213423 c 0.271118,0 0.480372,-0.08009 0.631486,-0.235644 0.151115,0.155559 0.355305,0.235644 0.617534,0.235644 h 0.26665 0.253215 c 0.271117,0 0.480165,-0.07977 0.626835,-0.239778 0.155559,0.160004 0.360266,0.239778 0.61805,0.239778 h 0.293005 2.351278 0.235644 c 0.25334,0 0.457634,-0.07554 0.608749,-0.222208 0.151114,-0.14667 0.226859,-0.337635 0.226859,-0.564307 v -1.218013 l -0.418062,0.12454 v 1.06195 c 0,0.30223 -0.146426,0.45372 -0.439766,0.45372 h -0.213424 v -0.0093 h -1.53324 v -0.830957 c 0,-0.25334 0.172991,-0.444418 0.426331,-0.444418 0.137781,0 0.258166,0.06231 0.364835,0.191203 l 0.311092,-0.284737 c -0.177782,-0.173337 -0.386829,-0.261999 -0.626835,-0.261999 -0.280006,0 -0.501971,0.08463 -0.661975,0.24908 -0.155559,0.164448 -0.235644,0.373289 -0.235644,0.622184 v 0.759644 h -0.395842 -0.26665 c -0.288896,0 -0.435633,-0.142086 -0.435633,-0.430982 z m 1.960088,0 c -0.120003,0 -0.226343,0.106752 -0.226343,0.235644 0,0.124448 0.10634,0.231511 0.226343,0.231511 0.124447,0 0.23151,-0.107063 0.23151,-0.231511 0,-0.128892 -0.107063,-0.235644 -0.23151,-0.235644 z m -56.685429,0.0093 c -0.12445,0 -0.23151,0.101895 -0.23151,0.226342 0,0.124448 0.10706,0.231511 0.23151,0.231511 0.12445,0 0.23099,-0.107063 0.23099,-0.231511 0,-0.124447 -0.10654,-0.226342 -0.23099,-0.226342 z m 14.15986,0 c -0.12445,0 -0.23099,0.101895 -0.23099,0.226342 0,0.124448 0.10654,0.231511 0.23099,0.231511 0.12445,0 0.22686,-0.107063 0.22686,-0.231511 0,-0.124447 -0.10241,-0.226342 -0.22686,-0.226342 z m 0.59583,0 c -0.12445,0 -0.231,0.101895 -0.231,0.226342 0,0.124448 0.10655,0.231511 0.231,0.231511 0.12889,0 0.23099,-0.107063 0.23099,-0.231511 0,-0.124447 -0.1021,-0.226342 -0.23099,-0.226342 z m 17.640265,0 c -0.124447,0 -0.226343,0.101895 -0.226343,0.226342 0,0.124448 0.101896,0.231511 0.226343,0.231511 0.128892,0 0.235645,-0.107063 0.235645,-0.231511 0,-0.124447 -0.106753,-0.226342 -0.235645,-0.226342 z m 0.604614,0 c -0.124447,0 -0.230993,0.101895 -0.230993,0.226342 0,0.124448 0.106546,0.231511 0.230993,0.231511 0.120003,0 0.22686,-0.107063 0.22686,-0.231511 0,-0.124447 -0.106857,-0.226342 -0.22686,-0.226342 z m 25.053768,0 c -0.124447,0 -0.230993,0.101895 -0.230993,0.226342 0,0.124448 0.106546,0.231511 0.230993,0.231511 0.124448,0 0.22686,-0.107063 0.22686,-0.231511 0,-0.124447 -0.102412,-0.226342 -0.22686,-0.226342 z m 0.59583,0 c -0.124448,0 -0.230994,0.101895 -0.230994,0.226342 0,0.124448 0.106546,0.231511 0.230994,0.231511 0.128891,0 0.230993,-0.107063 0.230993,-0.231511 0,-0.124447 -0.102102,-0.226342 -0.230993,-0.226342 z m -70.224137,0.675411 c -0.12445,0 -0.22634,0.106546 -0.22634,0.230993 0,0.128892 0.10189,0.230994 0.22634,0.230994 0.12445,0 0.23099,-0.102102 0.23099,-0.230994 0,-0.124447 -0.10654,-0.230993 -0.23099,-0.230993 z m 0.59583,0 c -0.12,0 -0.22686,0.106546 -0.22686,0.230993 0,0.128892 0.10686,0.230994 0.22686,0.230994 0.12445,0 0.23099,-0.102102 0.23099,-0.230994 0,-0.124447 -0.10654,-0.230993 -0.23099,-0.230993 z m 39.27615,0 c -0.12444,0 -0.22634,0.106546 -0.22634,0.230993 0,0.128892 0.1019,0.230994 0.22634,0.230994 0.12445,0 0.23151,-0.102102 0.23151,-0.230994 0,-0.124447 -0.10706,-0.230993 -0.23151,-0.230993 z m 0.59583,0 c -0.12,0 -0.22686,0.106546 -0.22686,0.230993 0,0.128892 0.10686,0.230994 0.22686,0.230994 0.12445,0 0.231,-0.102102 0.231,-0.230994 0,-0.124447 -0.10655,-0.230993 -0.231,-0.230993 z m 16.698209,0.02222 -0.484725,0.373103 h 0.964799 c 0.315563,0 0.524094,0.09817 0.626318,0.298173 0.07556,0.142226 0.115755,0.395501 0.115755,0.75551 v 0.359668 h -0.399975 c 0.08,-0.09778 0.119889,-0.25764 0.119889,-0.475423 0,-0.182227 -0.04009,-0.337851 -0.12454,-0.457854 -0.102225,-0.155559 -0.257434,-0.230993 -0.470772,-0.230993 -0.208894,0 -0.369271,0.07543 -0.47594,0.230993 -0.08445,0.120003 -0.124024,0.275627 -0.124024,0.457854 0,0.280006 0.04412,0.435422 0.13746,0.475423 h -0.461988 -0.604614 V 38.05064 c 0,-0.231117 -0.07998,-0.41309 -0.244429,-0.550871 -0.164449,-0.137781 -0.373392,-0.208773 -0.635621,-0.208773 -0.200004,0 -0.399958,0.08866 -0.599963,0.262 v 0.480074 c 0.14667,-0.257784 0.346624,-0.38654 0.599963,-0.38654 0.306674,0 0.462505,0.146737 0.462505,0.435633 v 0.844393 h -1.093474 l -0.253214,0.364318 h 2.368847 2.230872 v -0.733288 c 0,-0.431122 -0.05756,-0.755595 -0.173116,-0.968933 -0.173338,-0.306674 -0.488924,-0.457853 -0.946712,-0.457853 z m -36.147669,0.06666 c -0.33334,0 -0.59984,0.129066 -0.80873,0.382406 -0.20445,0.253339 -0.30675,0.559728 -0.30231,0.928625 0.004,0.173338 0.0353,0.306536 0.0842,0.408761 h -0.59531 v 0.0093 h -0.13332 c -0.29334,0 -0.44029,-0.146943 -0.44029,-0.440284 V 37.28637 l -0.41754,0.12454 v 1.06195 c 0,0.30223 -0.14664,0.45372 -0.44442,0.45372 h -0.18655 v -0.0093 h -0.62684 v -1.630908 l -0.42219,0.12454 v 1.760099 c 0,0.373342 -0.21774,0.604098 -0.57775,0.604098 -0.25334,0 -0.47592,-0.05735 -0.67592,-0.168466 l 0.19998,0.417546 c 0.1289,0.08 0.28483,0.119889 0.47594,0.119889 0.57335,0 0.93751,-0.33761 0.99529,-0.853178 h 0.63149 0.2129 c 0.27112,0 0.48038,-0.08009 0.63149,-0.235644 0.15112,0.155559 0.35531,0.235644 0.61753,0.235644 h 0.26665 3.08457 2.87114 0.23565 c 0.25334,0 0.45763,-0.07554 0.60875,-0.222208 0.15111,-0.14667 0.22686,-0.337635 0.22686,-0.564307 v -1.218013 l -0.41755,0.12454 v 1.06195 c 0,0.30223 -0.14694,0.45372 -0.44028,0.45372 h -0.21343 v -0.0093 h -0.55087 v -0.150895 c 0,-0.431122 -0.0578,-0.764482 -0.17776,-0.991154 -0.17334,-0.324453 -0.48438,-0.488859 -0.93328,-0.488859 -0.35556,0 -0.68045,0.146736 -0.97824,0.435632 l 0.30231,0.280086 c 0.2089,-0.226672 0.43148,-0.342615 0.67593,-0.342615 0.29334,0 0.48875,0.124726 0.58653,0.373621 0.0622,0.151115 0.093,0.395503 0.093,0.733289 v 0.160197 h -1.88877 v -0.0093 h -0.45785 v -0.190686 c 0,-0.360009 -0.0175,-0.613697 -0.0486,-0.764811 -0.04,-0.20445 -0.12918,-0.364206 -0.26251,-0.484209 -0.20445,-0.186671 -0.47106,-0.280086 -0.79996,-0.280086 z m -19.11614,0.08888 -0.41341,0.111104 v 1.084688 c 0,0.288896 -0.14664,0.435116 -0.44442,0.435116 h -1.49758 c -0.29334,0 -0.44029,-0.14622 -0.44029,-0.435116 v -0.831474 l -0.41754,0.426848 v 0.449068 c 0,0.457789 0.31994,0.764294 0.79995,0.764294 h 1.57768 c 0.52001,0 0.83561,-0.297616 0.83561,-0.764294 z m 33.4455,0 -0.42219,0.12454 v 1.760099 c 0,0.373342 -0.21774,0.604098 -0.57775,0.604098 -0.25334,0 -0.47592,-0.05735 -0.67592,-0.168466 l 0.19998,0.417546 c 0.1289,0.08 0.28483,0.119889 0.47594,0.119889 0.30668,0 0.55086,-0.08856 0.72864,-0.270784 0.18223,-0.182227 0.2713,-0.417934 0.2713,-0.715719 z m 6.42648,0 -0.41289,0.111104 v 1.084688 c 0,0.288896 -0.14663,0.435116 -0.44442,0.435116 h -1.4981 c -0.29334,0 -0.43976,-0.14622 -0.43976,-0.435116 v -0.831474 l -0.41807,0.426848 v 0.449068 c 0,0.457789 0.31994,0.764294 0.79995,0.764294 h 1.5782 c 0.52001,0 0.83509,-0.297616 0.83509,-0.764294 z m -11.1466,0.0046 c -0.20001,0 -0.39996,0.08866 -0.59997,0.262 v 0.480074 c 0.14667,-0.257784 0.34663,-0.38654 0.59997,-0.38654 0.30667,0 0.46198,0.146737 0.46198,0.435633 v 0.844393 h -1.09295 l -0.25373,0.364318 h 1.76475 V 38.05064 c 0,-0.231117 -0.08,-0.41309 -0.24443,-0.550871 -0.16445,-0.137781 -0.37339,-0.208773 -0.63562,-0.208773 z m -2.84892,0.0708 c -0.30668,0 -0.53805,0.106849 -0.68472,0.315743 -0.12,0.173338 -0.1819,0.400055 -0.1819,0.680062 0,0.280007 0.0619,0.502074 0.1819,0.675411 0.14667,0.213338 0.37804,0.319877 0.68472,0.319877 0.15555,0 0.2933,-0.03534 0.42219,-0.106453 -0.0356,0.333341 -0.21329,0.510871 -0.5333,0.52865 -0.21778,0.01333 -0.45359,-0.03554 -0.70693,-0.155547 l 0.18655,0.409278 c 0.12445,0.07556 0.29815,0.115238 0.52038,0.115238 0.31556,0 0.55541,-0.102302 0.71985,-0.302307 0.15556,-0.177782 0.2312,-0.417313 0.23565,-0.723987 0,-0.04445 0.005,-0.13786 0.0134,-0.280086 0.004,-0.128892 0.004,-0.240081 0.004,-0.324528 0,-0.34223 -0.0485,-0.604805 -0.14625,-0.787032 -0.13778,-0.24445 -0.37793,-0.364319 -0.71571,-0.364319 z m 4.97799,0 c -0.30668,0 -0.53805,0.106849 -0.68472,0.315743 -0.12,0.173338 -0.18241,0.400055 -0.18241,0.680062 0,0.280007 0.0624,0.502074 0.18241,0.675411 0.14667,0.213338 0.37804,0.319877 0.68472,0.319877 0.15556,0 0.2933,-0.03534 0.42219,-0.106453 -0.0356,0.333341 -0.21329,0.510871 -0.5333,0.52865 -0.21778,0.01333 -0.45359,-0.03554 -0.70693,-0.155547 l 0.18655,0.409278 c 0.12445,0.07556 0.29815,0.115238 0.52038,0.115238 0.31556,0 0.55541,-0.102302 0.71985,-0.302307 0.15556,-0.177782 0.2312,-0.417313 0.23565,-0.723987 0,-0.04445 0.005,-0.13786 0.0134,-0.280086 0.004,-0.128892 0.004,-0.240081 0.004,-0.324528 0,-0.34223 -0.049,-0.604805 -0.14676,-0.787032 -0.13778,-0.24445 -0.37742,-0.364319 -0.7152,-0.364319 z m 3.84007,0 c -0.30667,0 -0.53804,0.106849 -0.68471,0.315743 -0.12,0.173338 -0.18242,0.400055 -0.18242,0.680062 0,0.280007 0.0624,0.502074 0.18242,0.675411 0.14667,0.213338 0.37804,0.319877 0.68471,0.319877 0.15556,0 0.29331,-0.03534 0.4222,-0.106453 -0.0356,0.333341 -0.21329,0.510871 -0.5333,0.52865 -0.21779,0.01333 -0.4536,-0.03554 -0.70694,-0.155547 l 0.18656,0.409278 c 0.12444,0.07556 0.29815,0.115238 0.52038,0.115238 0.31556,0 0.5554,-0.102302 0.71985,-0.302307 0.15556,-0.177782 0.2312,-0.417313 0.23564,-0.723987 0,-0.04445 0.005,-0.13786 0.0134,-0.280086 0.004,-0.128892 0.004,-0.240081 0.004,-0.324528 0,-0.34223 -0.049,-0.604805 -0.14676,-0.787032 -0.13778,-0.24445 -0.37741,-0.364319 -0.7152,-0.364319 z m 12.346535,0 c -0.306674,0 -0.537526,0.106849 -0.684196,0.315743 -0.120003,0.173338 -0.182418,0.400055 -0.182418,0.680062 0,0.280007 0.06242,0.502074 0.182418,0.675411 0.14667,0.213338 0.377522,0.319877 0.684196,0.319877 0.155559,0 0.293821,-0.03534 0.422713,-0.106453 -0.03556,0.333341 -0.21381,0.510871 -0.533817,0.52865 -0.217783,0.01333 -0.453078,-0.03554 -0.706417,-0.155547 l 0.186552,0.409278 c 0.124447,0.07556 0.297637,0.115238 0.519865,0.115238 0.315563,0 0.555921,-0.102302 0.720369,-0.302307 0.155559,-0.177782 0.2312,-0.417313 0.235645,-0.723987 0,-0.04445 0.004,-0.13786 0.01292,-0.280086 0.0044,-0.128892 0.0047,-0.240081 0.0047,-0.324528 0,-0.34223 -0.04898,-0.604805 -0.146761,-0.787032 -0.137782,-0.24445 -0.377933,-0.364319 -0.715719,-0.364319 z m -27.924915,0.208773 c 0.3289,-0.0044 0.53795,0.120177 0.62684,0.382406 0.0489,0.128892 0.0708,0.38692 0.0708,0.773596 v 0.190686 h -0.52865 c 0.0933,-0.06667 0.13797,-0.208548 0.13797,-0.426331 0,-0.222227 -0.0535,-0.408747 -0.16019,-0.564306 -0.1289,-0.191116 -0.30663,-0.284738 -0.53331,-0.284738 0.0978,-0.04889 0.22654,-0.07131 0.38654,-0.07131 z m 23.280754,0.0047 c 0.315563,0 0.470772,0.115838 0.470772,0.3514 v 0.342098 h -0.515214 c -0.177782,0 -0.288867,-0.01767 -0.333313,-0.05323 -0.04444,-0.04 -0.06666,-0.133312 -0.06666,-0.288871 0,-0.235562 0.146632,-0.3514 0.444417,-0.3514 z m 17.964795,0.08423 c 0.297785,0 0.461987,0.226938 0.461987,0.529167 0,0.14667 -0.03968,0.28452 -0.115238,0.413412 -0.08445,0.137781 -0.200079,0.23533 -0.346749,0.28422 -0.151115,-0.04889 -0.266953,-0.146439 -0.3514,-0.28422 -0.07556,-0.128892 -0.115238,-0.266742 -0.115238,-0.413412 0,-0.297785 0.164408,-0.529167 0.466638,-0.529167 z m -34.485229,0.06666 c 0.29778,0 0.44441,0.209254 0.44441,0.631486 0,0.417788 -0.14663,0.626318 -0.44441,0.626318 -0.29779,0 -0.44907,-0.20853 -0.44907,-0.626318 0,-0.422232 0.15128,-0.631486 0.44907,-0.631486 z m 4.97799,0 c 0.29778,0 0.44441,0.209254 0.44441,0.631486 0,0.417788 -0.14663,0.626318 -0.44441,0.626318 -0.29779,0 -0.44907,-0.20853 -0.44907,-0.626318 0,-0.422232 0.15128,-0.631486 0.44907,-0.631486 z m 3.84007,0 c 0.29779,0 0.44442,0.209254 0.44442,0.631486 0,0.417788 -0.14663,0.626318 -0.44442,0.626318 -0.29778,0 -0.44907,-0.20853 -0.44907,-0.626318 0,-0.422232 0.15129,-0.631486 0.44907,-0.631486 z m 12.346535,0 c 0.297785,0 0.444934,0.209254 0.444934,0.631486 0,0.417788 -0.147149,0.626318 -0.444934,0.626318 -0.297785,0 -0.448551,-0.20853 -0.448551,-0.626318 0,-0.422232 0.150766,-0.631486 0.448551,-0.631486 z m -35.102765,0.01809 c 0.28889,0 0.43563,0.199747 0.43563,0.595312 0,0.395565 -0.14674,0.591179 -0.43563,0.591179 -0.29334,0 -0.44029,-0.195614 -0.44029,-0.591179 0,-0.395565 0.14695,-0.595312 0.44029,-0.595312 z m 6.77323,0.239778 c 0.0978,0 0.17807,0.05332 0.24029,0.155546 0.0622,0.102225 0.093,0.217857 0.093,0.346749 0,0.244451 -0.11553,0.430982 -0.33331,0.430982 -0.21778,0 -0.32866,-0.186531 -0.32866,-0.430982 0,-0.128892 0.0311,-0.244524 0.0889,-0.346749 0.0622,-0.102224 0.142,-0.155546 0.23978,-0.155546 z m 36.899038,0.07131 c 0.173337,0 0.261999,0.128756 0.261999,0.38654 0,0.324452 -0.08866,0.484725 -0.261999,0.484725 -0.173338,0 -0.262517,-0.160273 -0.262517,-0.484725 0,-0.257784 0.08918,-0.38654 0.262517,-0.38654 z m -53.601378,1.630908 c -0.12,0 -0.22686,0.102412 -0.22686,0.22686 0,0.124447 0.10686,0.230993 0.22686,0.230993 0.12445,0 0.23099,-0.106546 0.23099,-0.230993 0,-0.124448 -0.10654,-0.22686 -0.23099,-0.22686 z m 14.40894,0 c -0.12889,0 -0.22634,0.102412 -0.22634,0.22686 0,0.124447 0.0975,0.230993 0.22634,0.230993 0.12445,0 0.23151,-0.106546 0.23151,-0.230993 0,-0.124448 -0.10706,-0.22686 -0.23151,-0.22686 z m 0.59583,0 c -0.12445,0 -0.22686,0.102412 -0.22686,0.22686 0,0.124447 0.10241,0.230993 0.22686,0.230993 0.12444,0 0.23099,-0.106546 0.23099,-0.230993 0,-0.124448 -0.10655,-0.22686 -0.23099,-0.22686 z m 4.87567,0 c -0.12445,0 -0.231,0.102412 -0.231,0.22686 0,0.124447 0.10655,0.230993 0.231,0.230993 0.12445,0 0.23099,-0.106546 0.23099,-0.230993 0,-0.124448 -0.10654,-0.22686 -0.23099,-0.22686 z m 23.404772,0 c -0.120003,0 -0.226343,0.102412 -0.226343,0.22686 0,0.124447 0.10634,0.230993 0.226343,0.230993 0.124447,0 0.23151,-0.106546 0.23151,-0.230993 0,-0.124448 -0.107063,-0.22686 -0.23151,-0.22686 z m 4.915979,0 c -0.124448,0 -0.230994,0.102412 -0.230994,0.22686 0,0.124447 0.106546,0.230993 0.230994,0.230993 0.120002,0 0.226342,-0.106546 0.226342,-0.230993 0,-0.124448 -0.10634,-0.22686 -0.226342,-0.22686 z m 0.599963,0 c -0.128892,0 -0.235645,0.102412 -0.235645,0.22686 0,0.124447 0.106753,0.230993 0.235645,0.230993 0.124447,0 0.226859,-0.106546 0.226859,-0.230993 0,-0.124448 -0.102412,-0.22686 -0.226859,-0.22686 z m 11.315588,0 c -0.128892,0 -0.226342,0.102412 -0.226342,0.22686 0,0.124447 0.09745,0.230993 0.226342,0.230993 0.124448,0 0.231511,-0.106546 0.231511,-0.230993 0,-0.124448 -0.107063,-0.22686 -0.231511,-0.22686 z m 0.59583,0 c -0.124448,0 -0.22686,0.102412 -0.22686,0.22686 0,0.124447 0.102412,0.230993 0.22686,0.230993 0.124447,0 0.230993,-0.106546 0.230993,-0.230993 0,-0.124448 -0.106546,-0.22686 -0.230993,-0.22686 z" /></g></svg>
