<?xml version="1.0" encoding="UTF-8" standalone="no"?>
<!-- Created with Inkscape (http://www.inkscape.org/) -->

<svg
   width="89.908287mm"
   height="10.69679mm"
   viewBox="0 0 89.908288 10.69679"
   id="SVGRoot"
   version="1.1"
   xml:space="preserve"
   xmlns="http://www.w3.org/2000/svg"
   xmlns:svg="http://www.w3.org/2000/svg"><defs
     id="defs1" /><g
     id="layer1"
     transform="translate(151.96014,-21.341705)"><path
       id="text151"
       style="font-style:normal;font-variant:normal;font-weight:normal;font-stretch:normal;font-size:5.89012px;line-height:7.36261px;font-family:'Hamdy V3';-inkscape-font-specification:'Hamdy V3';text-align:end;text-decoration-color:#000000;letter-spacing:0px;writing-mode:lr-tb;direction:rtl;text-anchor:end;opacity:1;fill:#388dcb;fill-opacity:1;stroke:none;stroke-width:0.312644;stroke-dashoffset:8"
       d="m -92.438359,21.341725 c -0.125484,0 -0.25329,0.03326 -0.383509,0.09955 -0.369349,0.227291 -0.553887,0.506382 -0.553887,0.837848 v 0.05679 c 0,0.0805 0.0098,0.142437 0.02871,0.185055 0.111283,0.303054 0.314727,0.45434 0.610678,0.45434 h 0.05679 c 0.0805,0 0.175053,-0.01891 0.283963,-0.05679 0.426172,-0.224924 0.639394,-0.518357 0.639394,-0.880603 v -0.05679 c 0,-0.0805 -0.0098,-0.142437 -0.02871,-0.185054 -0.111283,-0.303055 -0.314727,-0.454341 -0.610679,-0.454341 z m 13.229467,0 c -0.125484,0 -0.25329,0.03326 -0.383509,0.09955 -0.369348,0.227291 -0.554524,0.506382 -0.554524,0.837848 v 0.05679 c 0,0.0805 0.0098,0.142437 0.02871,0.185055 0.111283,0.303054 0.314727,0.45434 0.610678,0.45434 h 0.05679 c 0.113642,0 0.251226,-0.03782 0.412224,-0.11358 0.2486,-0.172836 0.399885,-0.357375 0.45434,-0.553886 h 0.01468 c 0,0.06156 0.0046,0.122854 0.01404,0.184415 0.113642,0.321997 0.321662,0.483056 0.624717,0.483056 h 0.05679 c 0.0805,0 0.175691,-0.01891 0.284601,-0.05679 0.426171,-0.224924 0.638757,-0.518357 0.638757,-0.880603 v -0.05679 c 0,-0.0805 -0.0091,-0.142436 -0.02808,-0.185053 -0.11127,-0.303055 -0.314725,-0.454341 -0.610678,-0.454341 h -0.04275 c -0.125484,0 -0.277407,0.04239 -0.454978,0.127624 -0.250968,0.19888 -0.392479,0.383418 -0.425626,0.553887 h -0.01468 c 0,-0.120754 -0.0091,-0.196392 -0.02808,-0.22717 -0.111283,-0.303055 -0.314727,-0.454341 -0.61068,-0.454341 z m -71.444368,0.07786 c -0.10657,0 -0.21544,0.02869 -0.32671,0.08551 -0.31727,0.196513 -0.47604,0.43696 -0.47604,0.721074 v 0.04978 c 0,0.06866 0.009,0.120187 0.0249,0.155702 0.0947,0.260437 0.26928,0.391166 0.52262,0.391166 h 0.0491 c 0.25096,0 0.47021,-0.133836 0.65725,-0.401376 h 0.0141 v 0.01025 c 0.0947,0.260438 0.26865,0.391166 0.52199,0.391166 h 0.0498 c 0.0687,0 0.15034,-0.01662 0.24504,-0.04978 0.36461,-0.191777 0.54687,-0.442822 0.54687,-0.75298 v -0.04978 c 0,-0.06866 -0.009,-0.121643 -0.0249,-0.159529 -0.0947,-0.260438 -0.26864,-0.391166 -0.52198,-0.391166 h -0.0389 c -0.25096,0 -0.47789,0.135296 -0.68151,0.405204 v -0.01404 c -0.0947,-0.260437 -0.26928,-0.391165 -0.52262,-0.391165 z m 68.496262,0.09253 c -0.236762,0 -0.506717,0.03325 -0.809772,0.09955 -0.369349,0.151527 -0.553886,0.308018 -0.553886,0.469016 v 5.241504 c -0.101812,0.179939 -0.191794,0.269924 -0.269925,0.269924 -0.371716,-0.0095 -0.650807,-0.01404 -0.837849,-0.01404 h -2.130676 c -0.05683,0 -0.08551,-0.0046 -0.08551,-0.01404 -0.189408,0 -0.308078,-0.17997 -0.355431,-0.539847 -0.0095,-0.705551 -0.01404,-1.293057 -0.01404,-1.761846 V 25.07792 l -0.01404,-0.07147 c -0.203615,-0.321997 -0.639198,-0.482418 -1.306866,-0.482418 h -0.142301 c -0.01657,0 -0.02571,0.0091 -0.02808,0.02808 v 2.670524 c 0,0.213086 0.03782,0.430877 0.11358,0.653434 0.224923,0.473523 0.528131,0.710226 0.909319,0.710226 h 4.176483 c 0.584801,0 0.953878,-0.09455 1.107773,-0.283963 0.0663,0.246232 0.156278,0.36947 0.269924,0.36947 h 0.745961 0.574945 2.734973 c 0.22019,0 0.413864,-0.06651 0.581965,-0.199092 0.05919,0.132586 0.130264,0.199092 0.213132,0.199092 h 1.306865 c 0.01173,0 0.01341,-0.0105 0.01787,-0.01787 h 0.987169 c 0.08523,0 0.194768,-0.01434 0.327354,-0.04275 0.558758,-0.177571 0.83785,-0.665319 0.83785,-1.463205 v -2.41464 c 0,-0.02131 -0.04759,-0.03565 -0.142301,-0.04275 -0.719755,0 -1.188592,0.16106 -1.406412,0.483055 -0.0095,0.648728 -0.01404,1.131906 -0.01404,1.449167 v 0.326716 c 0,0.482994 -0.165628,0.724265 -0.497095,0.724265 h -0.483055 c -0.01025,0 -0.01241,0.01062 -0.01722,0.01787 h -0.661091 c -0.07577,-0.05919 -0.11358,-0.15895 -0.11358,-0.29864 V 23.57197 c 0,-0.04499 -0.416672,-0.07367 -1.250073,-0.08551 h -0.170378 c -1.600509,0 -2.400602,0.748566 -2.400602,2.2449 v 0.02808 c 0,0.253335 0.02804,0.495243 0.08487,0.724902 0.215454,0.662933 0.585168,0.994189 1.108411,0.994189 h 0.08487 c 0.506671,0 0.880953,-0.284299 1.12245,-0.852526 h 0.01404 v 0.994825 c -0.04498,0.04736 -0.09257,0.07083 -0.142301,0.07083 h -2.10898 c -0.0047,-0.0048 -0.0051,-0.01284 -0.01467,-0.01404 h -1.06502 c -0.0947,-0.01657 -0.142301,-0.348466 -0.142301,-0.994825 v -5.127918 c 0,-0.02131 -0.04759,-0.03565 -0.1423,-0.04275 z m -59.734892,0.08551 c -0.0852,0.0072 -0.12763,0.02081 -0.12763,0.04212 v 5.966407 c 0.0189,0.02367 0.0333,0.07127 0.0427,0.142299 0.0782,0.321997 0.20594,0.554131 0.38351,0.696188 0.10891,0.151527 0.45907,0.22717 1.05098,0.22717 h 1.05098 c 0.007,0 0.006,-0.0082 0.0111,-0.01087 h 0.66811 c 0.30779,0 0.55362,-0.09455 0.7383,-0.283962 h 0.0141 c 0.0758,0.198879 0.16117,0.298639 0.25588,0.298639 h 1.32091 c 0.002,0 10e-4,-0.0035 0.004,-0.0038 h 6.69451 c 0.0852,-0.05683 0.21303,-0.165718 0.3835,-0.326716 0.0568,0.217821 0.14224,0.326716 0.25588,0.326716 h 0.79893 0.50794 0.54304 c 0.56113,0 0.89302,-0.0613 0.99483,-0.184416 0.15389,-0.07576 0.29604,-0.293555 0.42626,-0.653432 0.0189,-0.13022 0.0378,-0.2065 0.0568,-0.227809 v -5.966406 c 0,-0.01894 -0.0384,-0.03265 -0.11422,-0.04212 -0.29595,0 -0.57505,0.04239 -0.83785,0.127624 -0.29359,0.144423 -0.4403,0.282005 -0.4403,0.412223 v 5.241504 c -0.0782,0.19888 -0.17268,0.298639 -0.28396,0.298639 h -0.85253 c -0.009,0 -0.01,0.0094 -0.0141,0.01404 h -0.52963 c -0.0474,0 -0.0898,-0.1089 -0.12762,-0.326716 0.0189,-0.201249 0.0288,-0.376651 0.0288,-0.52581 v -0.156338 c 0,-0.715021 -0.18518,-1.282978 -0.55453,-1.704415 -0.57769,-0.643992 -1.3354,-0.966111 -2.27297,-0.966111 h -0.12762 c -0.71266,0 -1.28582,0.146717 -1.7191,0.440301 -0.21781,0.08287 -0.53473,0.352822 -0.95143,0.809773 -0.27228,0.35751 -0.4379,0.613123 -0.49709,0.767018 h -0.0147 v -2.78411 c -0.19177,-0.39776 -0.63193,-0.59664 -1.32091,-0.59664 h -0.12762 c -0.0284,0.0142 -0.0427,0.02855 -0.0427,0.04275 v 4.989446 h -0.93038 c -0.0331,0 -0.071,-0.08478 -0.1136,-0.255247 l 0.0141,-0.08551 V 24.74036 c 0,-0.02131 -0.0475,-0.03565 -0.14231,-0.04275 -0.71976,0 -1.18859,0.16106 -1.40641,0.483056 -0.01,0.648727 -0.0141,1.131905 -0.0141,1.449166 v 0.326717 c 0,0.474495 -0.16187,0.712724 -0.48178,0.721073 h -0.65088 c -0.11126,0 -0.20582,-0.09976 -0.28396,-0.298638 v -5.241505 l -0.0147,-0.07147 c -0.19888,-0.312525 -0.61555,-0.468379 -1.25007,-0.468379 z m 28.83401,0 c -0.29595,0 -0.57505,0.04239 -0.83785,0.127624 -0.29359,0.144424 -0.4403,0.282005 -0.4403,0.412223 v 5.241505 c -0.0782,0.19888 -0.17332,0.298638 -0.28461,0.298638 h -0.85188 c -0.0111,0 -0.0137,0.01013 -0.0185,0.01787 h -0.53921 c -0.0261,0 -0.0593,-0.06194 -0.0995,-0.185054 0.21781,-0.359878 0.32671,-0.795461 0.32671,-1.306866 0,-0.324364 -0.0521,-0.646483 -0.15634,-0.966111 -0.29832,-0.738698 -0.88519,-1.107773 -1.76121,-1.107773 h -0.12826 c -0.32909,0 -0.62253,0.05216 -0.8806,0.156338 -0.71029,0.293584 -1.06502,0.928048 -1.06502,1.903507 v 0.05679 c 0,0.104171 0.0137,0.303055 0.0421,0.596641 -0.0142,0.232027 -0.0566,0.364401 -0.12762,0.397547 h -1.15052 c -0.0498,0 -0.12537,0.01434 -0.22717,0.04275 -0.48299,0.205983 -0.72491,0.627223 -0.72491,1.264112 v 2.542902 c 0,0.01894 0.01,0.02871 0.0288,0.02871 h 0.19845 c 0.59428,0 0.97834,-0.16106 1.15116,-0.483055 0.01,-0.293586 0.0141,-0.525718 0.0141,-0.696187 V 28.86004 c 0.0307,-0.426172 0.13512,-0.639395 0.31269,-0.639395 h 0.65342 c 0.13496,0 0.23408,-0.161059 0.298,-0.483056 h 0.0141 c 0.36225,0.359878 0.85,0.539849 1.4632,0.539849 h 0.12827 c 0.40723,0 0.76717,-0.08998 1.0797,-0.269925 h 0.0141 c 0.071,0.454583 0.18448,0.68215 0.34075,0.68215 h 1.32154 c 0.0111,0 0.0127,-0.01062 0.0172,-0.01787 h 0.5258 c 0.56113,0 0.89239,-0.0613 0.99419,-0.184417 0.1539,-0.07576 0.29605,-0.293554 0.42627,-0.653432 0.0189,-0.130219 0.0378,-0.2065 0.0568,-0.227808 v -5.966407 c 0,-0.01894 -0.0378,-0.03265 -0.11361,-0.04212 z m 0.91315,0 c -0.0852,0.0072 -0.12827,0.02081 -0.12827,0.04212 v 5.966407 c 0.0189,0.02367 0.0332,0.07127 0.0427,0.142299 0.0782,0.321997 0.20595,0.554131 0.38351,0.696188 0.10892,0.151527 0.45908,0.22717 1.05098,0.22717 h 0.46902 c 0.005,0.0027 0.004,0.01087 0.0111,0.01087 h 1.9603 c 0.007,0 0.006,-0.008 0.0111,-0.01087 h 1.27496 c 0.0947,0 0.18925,-0.01891 0.28396,-0.05679 0.40723,-0.182306 0.61068,-0.655711 0.61068,-1.420451 0,-0.203616 -0.0567,-0.521167 -0.17038,-0.952073 -0.50194,0.0663 -0.91404,0.09955 -1.23604,0.09955 -0.66293,0 -0.99419,-0.359941 -0.99419,-1.079697 v -0.199092 c 0,-0.700816 0.34104,-1.050981 1.0229,-1.050981 h 0.0568 v 1.136488 c 0,0.01894 0.009,0.02871 0.028,0.02871 h 1.29283 c 0.0189,0 0.0288,-0.0098 0.0288,-0.02871 V 23.14571 c -0.4451,-0.160998 -0.91395,-0.241209 -1.40641,-0.241209 h -0.18505 c -0.31016,0 -0.62251,0.04696 -0.93739,0.141663 -0.87129,0.295951 -1.30687,1.006696 -1.30687,2.131315 0,0.620315 0.13237,1.117199 0.39755,1.491282 0.43801,0.511405 1.0066,0.767019 1.70505,0.767019 h 0.31204 c 0.21071,0 0.42914,-0.02348 0.65407,-0.07083 v 0.01404 c -0.18942,0.208349 -0.54934,0.312677 -1.07969,0.312677 h -0.35862 c -0.002,-5.77e-4 -10e-4,-0.0035 -0.004,-0.0038 h -1.37833 c -0.005,-0.0027 -0.004,-0.0094 -0.01,-0.01025 h -0.85253 c -0.11126,0 -0.20584,-0.09976 -0.28396,-0.298639 v -5.241504 l -0.0141,-0.07147 c -0.19888,-0.312526 -0.61555,-0.468379 -1.25007,-0.468379 z m -12.73556,0.11358 c -0.0852,0.0072 -0.12827,0.02081 -0.12827,0.04212 v 6.421385 l 0.0147,0.07083 c 0.19888,0.312526 0.61555,0.469016 1.25007,0.469016 0.0852,-0.0072 0.12763,-0.02145 0.12763,-0.04275 v -6.420745 l -0.0141,-0.07147 c -0.19889,-0.312525 -0.61556,-0.468379 -1.25008,-0.468379 z m 55.242533,0.937396 c -0.02841,0.0142 -0.04275,0.02855 -0.04275,0.04275 v 4.989446 h -0.617698 V 26.3031 c -0.395392,-0.445112 -0.911824,-0.767231 -1.548713,-0.966111 l -0.01404,0.02871 v 4.076937 c 0,0.454584 -0.217792,0.681512 -0.653432,0.681512 h -0.09955 c -0.132586,0 -0.30342,-0.01892 -0.511771,-0.05679 h -0.01404 v 0.05679 c 0,0.26754 0.05216,0.660733 0.156339,1.179242 0.05919,0.113641 0.352624,0.18472 0.880603,0.213131 h 0.156339 c 0.265173,0 0.520786,-0.04759 0.767019,-0.1423 0.587168,-0.243865 0.88124,-0.783775 0.88124,-1.619544 v -1.079058 h 0.667472 c 0.0026,0 0.0016,-0.0035 0.0038,-0.0038 h 6.779368 c 0.05683,-0.03551 0.08487,-0.05899 0.08487,-0.07083 0.473523,-0.288849 0.710864,-0.876355 0.710864,-1.761844 v -0.156339 c 0,-0.71502 -0.185177,-1.282977 -0.554526,-1.704414 -0.577698,-0.643992 -1.3354,-0.966111 -2.272976,-0.966111 h -0.127624 c -0.712653,0 -1.285817,0.146717 -1.719091,0.440301 -0.217821,0.08287 -0.534733,0.352822 -0.951434,0.809772 -0.272276,0.357511 -0.437903,0.613124 -0.497094,0.767019 h -0.01468 v -2.78411 c -0.191777,-0.39776 -0.631928,-0.59664 -1.320905,-0.59664 z m -79.055203,0.156339 c -0.10422,0.0072 -0.15634,0.02145 -0.15634,0.04275 v 0.354794 h -2.15875 c -0.064,0 -0.16825,0.02412 -0.31267,0.07147 -0.42618,0.222555 -0.6394,0.71487 -0.6394,1.477243 v 2.78411 c 0,0.01894 0.01,0.02871 0.0286,0.02871 h 3.08211 c 0,0.02367 0.01,0.0563 0.0288,0.09891 0.0331,0.279379 0.17073,0.535629 0.41222,0.767656 0.11842,0.160998 0.49723,0.241209 1.13649,0.241209 h 0.54304 c 0.005,0.0027 0.004,0.01087 0.0111,0.01087 h 1.9603 c 0.007,0 0.006,-0.008 0.0111,-0.01087 h 1.27497 c 0.0947,0 0.18925,-0.01891 0.28396,-0.05679 0.40722,-0.182306 0.61068,-0.655711 0.61068,-1.420451 0,-0.203616 -0.0567,-0.521167 -0.17038,-0.952073 -0.50193,0.0663 -0.91404,0.09955 -1.23604,0.09955 -0.66293,0 -0.99419,-0.35994 -0.99419,-1.079697 v -0.199092 c 0,-0.700816 0.34104,-1.050981 1.02291,-1.050981 h 0.0568 v 1.136488 c 0,0.01894 0.009,0.02871 0.028,0.02871 h 1.29282 c 0.0189,0 0.0288,-0.0098 0.0288,-0.02871 v -2.003053 c -0.44512,-0.160997 -0.91395,-0.241209 -1.40641,-0.241209 h -0.18506 c -0.31016,0 -0.6225,0.04696 -0.9374,0.141663 -0.87128,0.295952 -1.30686,1.006696 -1.30686,2.131315 0,0.620315 0.13238,1.117199 0.39754,1.491282 0.43801,0.511406 1.0066,0.767019 1.70505,0.767019 h 0.31204 c 0.21073,0 0.42852,-0.02347 0.65344,-0.07083 v 0.01404 c -0.18941,0.20835 -0.54871,0.312677 -1.07906,0.312677 h -0.35862 c -0.002,-5.77e-4 -0.001,-0.0035 -0.004,-0.0038 h -1.35346 c -0.005,-0.0027 -0.004,-0.0094 -0.01,-0.01025 h -0.90932 c -0.13021,0 -0.23454,-0.09519 -0.31267,-0.284601 v -3.948675 c -0.16574,-0.426171 -0.61566,-0.639395 -1.34962,-0.639395 z m 56.311393,0.68151 c -1.600509,0 -2.4006,0.748566 -2.4006,2.2449 v 0.02808 c 0,0.253335 0.02868,0.495243 0.08551,0.724902 0.215454,0.662933 0.58453,0.994188 1.107773,0.994188 h 0.08551 c 0.506669,0 0.880314,-0.284298 1.121811,-0.852525 h 0.01468 v 0.994825 c -0.04498,0.04736 -0.09258,0.07083 -0.142301,0.07083 h -2.265958 -0.269924 c -0.198879,0 -0.298001,-0.217791 -0.298001,-0.653433 V 25.51822 c 0,-0.02604 -0.0098,-0.05473 -0.02871,-0.08551 -0.156263,-0.284113 -0.506429,-0.426263 -1.050981,-0.426263 h -3.352673 c -0.02136,0 -0.03569,0.02412 -0.04273,0.07147 0,0.565861 0.142154,0.94928 0.426264,1.150528 v 0.852526 c 0,0.407229 0.04766,0.7098 0.142303,0.90868 0.172839,0.388289 0.523001,0.582602 1.050982,0.582602 h 0.667475 c 0.160997,0.04026 0.241847,0.186966 0.241847,0.440301 v 0.128262 h -4.95754 l -0.0995,-0.01468 c -0.17993,-0.0805 -0.26992,-0.283948 -0.26992,-0.610679 v -0.96611 c 0,-0.137323 -0.005,-0.349908 -0.0147,-0.638757 -0.19888,-0.284114 -0.58229,-0.426263 -1.15053,-0.426263 h -0.19845 c -0.0165,0 -0.0263,0.0091 -0.0288,0.02808 v 2.329769 c 0,0.118383 0.0189,0.255961 0.0568,0.412225 0.1752,0.511405 0.49275,0.767018 0.95207,0.767018 h 5.71052 c 0.125484,0 0.253291,-0.02347 0.383509,-0.07083 0.39776,-0.153895 0.596641,-0.480583 0.596641,-0.98015 v -0.171016 c 0,-0.142056 -0.01891,-0.303115 -0.05679,-0.483056 -0.130219,-0.42617 -0.366921,-0.638756 -0.710226,-0.638756 h -0.511771 c -0.265176,0 -0.39755,-0.19888 -0.39755,-0.59664 v -0.682148 h 1.207322 c 0.246232,0.0047 0.369471,0.02365 0.369471,0.05679 v 0.880602 c 0,0.101812 0.0046,0.187226 0.01404,0.255886 0.108913,0.719756 0.331909,1.079696 0.668111,1.079696 h 0.518151 0.433283 2.876637 c 0.253335,0 0.466559,-0.08541 0.639395,-0.255885 0.19888,-0.253336 0.298638,-0.46592 0.298638,-0.638756 v -4.205199 c 0,-0.04498 -0.416671,-0.07367 -1.250073,-0.08551 z m 7.227328,0.241847 c -0.116013,0 -0.248389,0.01891 -0.397548,0.05679 -0.416701,0.156262 -0.625356,0.478382 -0.625356,0.966111 v 0.11358 c 0,0.106541 0.01435,0.220006 0.04275,0.340755 0.151528,0.445112 0.463872,0.667472 0.937396,0.667472 h 0.213131 c 0.08524,0 0.166083,-0.0091 0.241848,-0.02808 -0.08997,0.08523 -0.204072,0.127624 -0.341394,0.127624 h -0.09891 c -0.182306,0 -0.419008,-0.0613 -0.710225,-0.184417 h -0.01468 c 0,0.02131 0.03782,0.224758 0.11358,0.61068 0,0.0947 0.04303,0.1423 0.128262,0.1423 h 0.08487 c 0.151528,0 0.303452,-0.0098 0.454979,-0.02871 0.501935,-0.10417 0.752979,-0.293282 0.752979,-0.567926 v -0.156337 c 0,-0.175204 -0.02869,-0.336263 -0.08551,-0.483055 -0.175204,0.02841 -0.345399,0.04275 -0.511132,0.04275 h -0.114222 c -0.284115,0 -0.425625,-0.165629 -0.425625,-0.497095 v -0.05679 c 0,-0.359878 0.151285,-0.539847 0.454339,-0.539847 h 0.05679 v 0.525171 c 0,0.01894 0.0098,0.02871 0.02871,0.02871 h 0.581964 c 0.01894,0 0.02871,-0.0098 0.02871,-0.02871 v -0.923357 c -0.151528,-0.08523 -0.34584,-0.127624 -0.582602,-0.127624 z m -65.086791,0.511132 h 1.39173 v 2.088562 h -1.80396 c 0.01,-0.544552 0.0141,-0.971 0.0141,-1.278789 v -0.156343 c 0,-0.435642 0.13301,-0.653433 0.39818,-0.653433 z m 57.717802,0.398186 c 0.03788,0 0.142208,0.0091 0.312677,0.02808 -0.158631,1.108045 -0.376422,1.662298 -0.653434,1.662298 -0.03314,0 -0.07618,-0.01434 -0.128261,-0.04275 -0.189409,-0.222556 -0.283962,-0.572722 -0.283962,-1.050981 0,-0.14916 0.01891,-0.263261 0.05679,-0.341393 0.0876,-0.170469 0.319736,-0.255248 0.696187,-0.255248 z m 13.825468,0 c 0.03789,0 0.14221,0.0091 0.312679,0.02808 -0.158631,1.108045 -0.376422,1.662298 -0.653434,1.662298 -0.03314,0 -0.07553,-0.01434 -0.127623,-0.04275 -0.189409,-0.222556 -0.2846,-0.572722 -0.2846,-1.050981 0,-0.14916 0.01891,-0.263261 0.05679,-0.341393 0.0876,-0.170469 0.319736,-0.255248 0.696186,-0.255248 z m -39.12239,0.500285 c 0.48299,0 0.72425,0.336461 0.72425,1.008865 v 0.11358 c 0,0.170468 -0.0235,0.34587 -0.0709,0.52581 -0.12077,0.321995 -0.32876,0.483055 -0.62471,0.483055 -0.483,0 -0.7249,-0.355372 -0.7249,-1.065657 0,-0.710285 0.23212,-1.065658 0.69619,-1.065658 z m -14.39405,0.59345 h 0.17039 c 0.11125,0 0.24428,0.01891 0.39818,0.05679 0.35041,0.130219 0.52518,0.419085 0.52518,0.866564 0,0.02367 -0.005,0.09475 -0.0141,0.213132 -0.0474,0.407231 -0.11385,0.671979 -0.19909,0.795096 h -3.65068 c 0.14206,-0.160999 0.2177,-0.241209 0.22717,-0.241209 1.01097,-1.126986 1.85866,-1.690376 2.5429,-1.690376 z m 66.937344,0 h 0.170378 c 0.111271,0 0.244289,0.01891 0.398186,0.05679 0.350406,0.130219 0.525171,0.419085 0.525171,0.866564 0,0.02367 -0.0046,0.09475 -0.01404,0.213132 -0.04736,0.407231 -0.113864,0.671979 -0.199094,0.795096 h -3.650673 c 0.142056,-0.160999 0.217698,-0.241209 0.22717,-0.241209 1.010972,-1.126986 1.85866,-1.690376 2.542901,-1.690376 z m -10.455568,3.149752 c -0.0947,0 -0.189258,0.01891 -0.283962,0.05679 -0.388289,0.196511 -0.582603,0.466467 -0.582603,0.809772 v 0.128261 c 0.08997,0.340938 0.279715,0.511134 0.568564,0.511134 h 0.08487 c 0.274643,0 0.511983,-0.151286 0.710863,-0.454342 h 0.01404 c 0.08997,0.255704 0.264734,0.38351 0.525171,0.38351 h 0.05743 c 0.03314,0 0.07553,-0.0046 0.127623,-0.01404 0.435643,-0.1681 0.653434,-0.428919 0.653434,-0.781694 v -0.08487 c 0,-0.03314 -0.0046,-0.07618 -0.01404,-0.128263 -0.09944,-0.265173 -0.279411,-0.397547 -0.539849,-0.397547 h -0.02871 c -0.269908,0 -0.492267,0.132374 -0.667472,0.397547 h -0.02871 c -0.0947,-0.284113 -0.274675,-0.426262 -0.539848,-0.426262 z m -62.554736,0.03574 c -0.0947,0 -0.18926,0.01891 -0.28396,0.05679 -0.3883,0.196511 -0.58261,0.466467 -0.58261,0.809772 v 0.127623 c 0.09,0.340937 0.27971,0.511771 0.56857,0.511771 h 0.0848 c 0.0734,0 0.15881,-0.01891 0.25588,-0.05679 0.3883,-0.203615 0.58261,-0.464434 0.58261,-0.781695 v -0.156339 c -0.09,-0.340937 -0.27972,-0.511132 -0.56857,-0.511132 z m 37.4888,1.345791 c -0.12548,0 -0.25329,0.03325 -0.3835,0.09955 -0.36935,0.227291 -0.55389,0.50702 -0.55389,0.838487 v 0.05679 c 0,0.0805 0.01,0.141799 0.0288,0.184416 0.11842,0.303055 0.31206,0.45434 0.58197,0.45434 h 0.0856 c 0.11361,0 0.25059,-0.03782 0.41159,-0.11358 0.31252,-0.243865 0.46901,-0.442745 0.46901,-0.59664 h 0.0141 v 0.01467 c -0.01,0.05209 -0.0141,0.09448 -0.0141,0.127624 v 0.07083 c 0,0.0805 0.01,0.142437 0.0288,0.185055 0.11126,0.303054 0.314724,0.45434 0.610676,0.45434 h 0.0568 c 0.08051,0 0.17505,-0.01892 0.283962,-0.05679 0.426191,-0.224923 0.63941,-0.518358 0.63941,-0.880603 v -0.05679 c 0,-0.0805 -0.0099,-0.142437 -0.02877,-0.185055 -0.111259,-0.303054 -0.314735,-0.45434 -0.6107,-0.45434 h -0.04273 c -0.184669,0 -0.364646,0.06651 -0.539845,0.199094 -0.246243,0.229658 -0.368833,0.418764 -0.368833,0.567925 h -0.0147 v -0.01404 c 0.0189,-0.07103 0.0288,-0.137535 0.0288,-0.199094 v -0.05679 c 0,-0.0805 -0.01,-0.141798 -0.0288,-0.184415 -0.11126,-0.303055 -0.31472,-0.454978 -0.61067,-0.454978 z" /></g></svg>
